<?xml version="1.0" encoding="UTF-8" standalone="no"?>
<svg
   xmlns:dc="http://purl.org/dc/elements/1.1/"
   xmlns:cc="http://creativecommons.org/ns#"
   xmlns:rdf="http://www.w3.org/1999/02/22-rdf-syntax-ns#"
   xmlns:svg="http://www.w3.org/2000/svg"
   xmlns="http://www.w3.org/2000/svg"
   xmlns:sodipodi="http://sodipodi.sourceforge.net/DTD/sodipodi-0.dtd"
   xmlns:inkscape="http://www.inkscape.org/namespaces/inkscape"
   id="Layer_1"
   style="enable-background:new 0 0 30.4 30.2;"
   version="1.1"
   viewBox="0 0 30.4 30.2"
   xml:space="preserve"
   sodipodi:docname="face3.svg"
   inkscape:version="0.92.1 r15371"><metadata
     id="metadata11"><rdf:RDF><cc:Work
         rdf:about=""><dc:format>image/svg+xml</dc:format><dc:type
           rdf:resource="http://purl.org/dc/dcmitype/StillImage" /></cc:Work></rdf:RDF></metadata><defs
     id="defs9" /><sodipodi:namedview
     pagecolor="#ffffff"
     bordercolor="#666666"
     borderopacity="1"
     objecttolerance="10"
     gridtolerance="10"
     guidetolerance="10"
     inkscape:pageopacity="0"
     inkscape:pageshadow="2"
     inkscape:window-width="1366"
     inkscape:window-height="740"
     id="namedview7"
     showgrid="false"
     inkscape:zoom="7.8145693"
     inkscape:cx="14.688135"
     inkscape:cy="15.1"
     inkscape:window-x="0"
     inkscape:window-y="0"
     inkscape:window-maximized="1"
     inkscape:current-layer="Layer_1" /><style
     type="text/css"
     id="style2">
	.st0{fill:none;stroke:#414042;stroke-width:1.25;stroke-linecap:round;stroke-linejoin:round;stroke-miterlimit:10;}
	.st1{fill:none;stroke:#414042;stroke-width:1.1713;stroke-linecap:round;stroke-linejoin:round;stroke-miterlimit:10;}
</style><path
     class="st0"
     d="M11.5,29.1c-0.4,0-0.8-0.3-0.8-0.8V15.9c0-0.4-0.3-0.8-0.8-0.8H7.8c-0.4,0-0.8-0.3-0.8-0.8v-3  c0-0.4,0.3-0.8,0.8-0.8h2c0.4,0,0.8-0.3,0.8-0.8V5.2C10.5,2.9,13,1.1,15,1c1.5,0,4.4,0,5.8,0c0.4,0,0.8,0.4,0.8,0.8v2.9  c0,0.4-0.3,0.8-0.8,0.8h-2.3c-1.3,0-2.3,1-2.3,2.3v2c0,0.4,0.3,0.8,0.8,0.8H20c0.4,0,0.8,0.3,0.8,0.8v3.1c0,0.4-0.3,0.8-0.8,0.8  h-2.8c-0.4,0-0.8,0.3-0.8,0.8v12.4"
     id="path4"
     style="stroke:#ffffff;stroke-opacity:1" /></svg>