<?xml version="1.0" encoding="UTF-8" standalone="no"?>
<svg
   xmlns:dc="http://purl.org/dc/elements/1.1/"
   xmlns:cc="http://creativecommons.org/ns#"
   xmlns:rdf="http://www.w3.org/1999/02/22-rdf-syntax-ns#"
   xmlns:svg="http://www.w3.org/2000/svg"
   xmlns="http://www.w3.org/2000/svg"
   xmlns:sodipodi="http://sodipodi.sourceforge.net/DTD/sodipodi-0.dtd"
   xmlns:inkscape="http://www.inkscape.org/namespaces/inkscape"
   height="512px"
   style="enable-background:new 0 0 512 512;"
   version="1.1"
   viewBox="0 0 512 512"
   width="512px"
   xml:space="preserve"
   id="svg6"
   sodipodi:docname="face2.svg"
   inkscape:version="0.92.1 r15371"><metadata
     id="metadata12"><rdf:RDF><cc:Work
         rdf:about=""><dc:format>image/svg+xml</dc:format><dc:type
           rdf:resource="http://purl.org/dc/dcmitype/StillImage" /></cc:Work></rdf:RDF></metadata><defs
     id="defs10" /><sodipodi:namedview
     pagecolor="#ffffff"
     bordercolor="#666666"
     borderopacity="1"
     objecttolerance="10"
     gridtolerance="10"
     guidetolerance="10"
     inkscape:pageopacity="0"
     inkscape:pageshadow="2"
     inkscape:window-width="1366"
     inkscape:window-height="740"
     id="namedview8"
     showgrid="false"
     inkscape:zoom="0.4609375"
     inkscape:cx="-121.49153"
     inkscape:cy="256"
     inkscape:window-x="0"
     inkscape:window-y="0"
     inkscape:window-maximized="1"
     inkscape:current-layer="svg6" /><g
     id="facebook__x2C__social__x2C__media_x2C__icon_x2C_"
     style="fill:#ffffff;fill-opacity:1"><path
       d="M434.478,16H77.519C43.718,16,16,43.719,16,77.521v356.957   C16,468.282,43.718,496,77.519,496h356.959C468.281,496,496,468.282,496,434.479V77.521C496,43.719,468.281,16,434.478,16z    M327.203,230.875L324.906,256H277c0,72,0,160,0,160h-64c0,0,0-87,0-160h-32v-25.368V192h32v-29.038   c0-26.212,12.524-67.166,67.461-67.166L330,96.021V151c0,0-30.163,0-36.003,0c-5.848,0-13.997,2.812-13.997,15.284V192h50.743   L327.203,230.875z"
       style="fill-rule:evenodd;clip-rule:evenodd;fill:#ffffff;fill-opacity:1"
       id="path2" /></g><g
     id="Layer_1" /></svg>