<?xml version="1.0" encoding="UTF-8" standalone="no"?>
<svg
   xmlns:dc="http://purl.org/dc/elements/1.1/"
   xmlns:cc="http://creativecommons.org/ns#"
   xmlns:rdf="http://www.w3.org/1999/02/22-rdf-syntax-ns#"
   xmlns:svg="http://www.w3.org/2000/svg"
   xmlns="http://www.w3.org/2000/svg"
   xmlns:sodipodi="http://sodipodi.sourceforge.net/DTD/sodipodi-0.dtd"
   xmlns:inkscape="http://www.inkscape.org/namespaces/inkscape"
   height="512px"
   style="enable-background:new 0 0 512 512;"
   version="1.1"
   viewBox="0 0 512 512"
   width="512px"
   xml:space="preserve"
   id="svg10"
   sodipodi:docname="face4.svg"
   inkscape:version="0.92.1 r15371"><metadata
     id="metadata16"><rdf:RDF><cc:Work
         rdf:about=""><dc:format>image/svg+xml</dc:format><dc:type
           rdf:resource="http://purl.org/dc/dcmitype/StillImage" /></cc:Work></rdf:RDF></metadata><defs
     id="defs14" /><sodipodi:namedview
     pagecolor="#ffffff"
     bordercolor="#666666"
     borderopacity="1"
     objecttolerance="10"
     gridtolerance="10"
     guidetolerance="10"
     inkscape:pageopacity="0"
     inkscape:pageshadow="2"
     inkscape:window-width="1366"
     inkscape:window-height="740"
     id="namedview12"
     showgrid="false"
     inkscape:zoom="0.4609375"
     inkscape:cx="247.32203"
     inkscape:cy="256"
     inkscape:window-x="0"
     inkscape:window-y="0"
     inkscape:window-maximized="1"
     inkscape:current-layer="svg10" /><g
     id="facebook__x2C__social__x2C__media_x2C__social__x2C__media_x2C_"
     style="stroke:none;stroke-opacity:1;fill:#ffffff;fill-opacity:1"><g
       id="g6"
       style="stroke:none;stroke-opacity:1;fill:#ffffff;fill-opacity:1"><path
         d="M425.614,86.349C382.172,42.901,322.253,16.07,255.96,16.07    c-66.292,0-126.209,26.831-169.652,70.278c-43.443,43.445-70.279,103.359-70.279,169.652c0,66.29,26.836,126.209,70.279,169.652    c43.443,43.447,103.359,70.276,169.652,70.276c66.293,0,126.212-26.829,169.654-70.276    c43.443-43.443,70.282-103.362,70.282-169.652C495.896,189.708,469.058,129.794,425.614,86.349z M412.465,412.499    c-40.121,39.993-95.394,64.702-156.505,64.702c-61.109,0-116.379-24.709-156.367-64.702    C59.602,372.382,34.76,317.114,34.76,256.001c0-61.111,24.842-116.379,64.833-156.367c39.988-39.988,95.258-64.835,156.367-64.835    c61.111,0,116.384,24.847,156.505,64.835c39.988,39.988,64.698,95.256,64.698,156.367    C477.163,317.114,452.453,372.382,412.465,412.499z"
         style="fill-rule:evenodd;clip-rule:evenodd;fill:#ffffff;stroke:none;stroke-opacity:1;fill-opacity:1"
         id="path2" /><path
         d="M276,187.316c0-9.433,4.537-13.316,9.061-13.316    c4.382,0,28.939,0,28.939,0v-43h-39.307C232.58,131,222,164.729,222,184.925V204h-24v32.603V252h24c0,58,0,126,0,126h54    c0,0,0-68,0-126h32.705l1.595-18.752L313.225,204H276V187.316z"
         style="fill-rule:evenodd;clip-rule:evenodd;fill:#ffffff;stroke:none;stroke-opacity:1;fill-opacity:1"
         id="path4" /></g></g><g
     id="Layer_1" /></svg>