<?xml version="1.0" encoding="UTF-8" standalone="no"?>
<svg
   xmlns:dc="http://purl.org/dc/elements/1.1/"
   xmlns:cc="http://creativecommons.org/ns#"
   xmlns:rdf="http://www.w3.org/1999/02/22-rdf-syntax-ns#"
   xmlns:svg="http://www.w3.org/2000/svg"
   xmlns="http://www.w3.org/2000/svg"
   xmlns:sodipodi="http://sodipodi.sourceforge.net/DTD/sodipodi-0.dtd"
   xmlns:inkscape="http://www.inkscape.org/namespaces/inkscape"
   height="512px"
   style="enable-background:new 0 0 512 512;"
   version="1.1"
   viewBox="0 0 512 512"
   width="512px"
   xml:space="preserve"
   id="svg14"
   sodipodi:docname="insta4.svg"
   inkscape:version="0.92.1 r15371"><metadata
     id="metadata20"><rdf:RDF><cc:Work
         rdf:about=""><dc:format>image/svg+xml</dc:format><dc:type
           rdf:resource="http://purl.org/dc/dcmitype/StillImage" /></cc:Work></rdf:RDF></metadata><defs
     id="defs18" /><sodipodi:namedview
     pagecolor="#ffffff"
     bordercolor="#666666"
     borderopacity="1"
     objecttolerance="10"
     gridtolerance="10"
     guidetolerance="10"
     inkscape:pageopacity="0"
     inkscape:pageshadow="2"
     inkscape:window-width="1366"
     inkscape:window-height="740"
     id="namedview16"
     showgrid="false"
     inkscape:zoom="0.4609375"
     inkscape:cx="-121.49153"
     inkscape:cy="256"
     inkscape:window-x="0"
     inkscape:window-y="0"
     inkscape:window-maximized="1"
     inkscape:current-layer="svg14" /><g
     id="instagram__x2C__social__x2C__media__x2C_"
     style="fill:#ffffff;fill-opacity:1"><g
       id="g10"
       style="fill:#ffffff;fill-opacity:1"><path
         d="M425.614,86.349C382.305,42.901,322.253,16.07,255.962,16.07    c-66.16,0-126.207,26.831-169.652,70.278c-43.445,43.445-70.282,103.359-70.282,169.652c0,66.29,26.836,126.209,70.282,169.652    c43.445,43.447,103.492,70.276,169.652,70.276c66.291,0,126.342-26.829,169.652-70.276    c43.443-43.443,70.282-103.362,70.282-169.652C495.896,189.708,469.058,129.794,425.614,86.349z M412.465,412.499    c-40.126,39.993-95.389,64.702-156.502,64.702c-60.979,0-116.379-24.709-156.365-64.702    c-39.993-40.117-64.835-95.385-64.835-156.498c0-61.111,24.842-116.379,64.835-156.367    c39.986-39.988,95.386-64.835,156.365-64.835c61.114,0,116.376,24.847,156.502,64.835c39.988,39.988,64.698,95.256,64.698,156.367    C477.163,317.114,452.453,372.382,412.465,412.499z"
         style="fill:#ffffff;fill-opacity:1"
         id="path2" /><path
         d="M255.962,178.416c-42.78,0-77.585,34.805-77.585,77.585c0,42.915,34.805,77.59,77.585,77.59    c42.911,0,77.585-34.675,77.585-77.59C333.548,213.221,298.873,178.416,255.962,178.416z M255.962,317.513    c-33.877,0-61.379-27.502-61.379-61.512c0-33.877,27.501-61.512,61.379-61.512c34.01,0,61.511,27.635,61.511,61.512    C317.474,290.011,289.973,317.513,255.962,317.513z"
         style="fill:#ffffff;fill-opacity:1"
         id="path4" /><path
         d="M319.466,136H192.594C161.374,136,135,161.274,135,192.633v126.876    C135,350.72,161.374,373,192.594,373h126.872C350.818,373,377,350.72,377,319.509V192.633C377,161.274,350.818,136,319.466,136z     M363,319.509C363,343.017,342.982,359,319.466,359H192.594C169.074,359,150,343.017,150,319.509V192.633    c0-23.52,19.074-42.633,42.594-42.633h126.872C342.982,150,363,169.113,363,192.633V319.509z"
         style="fill:#ffffff;fill-opacity:1"
         id="path6" /><path
         d="M332.086,167.921c-6.909,0-12.487,5.578-12.487,12.484c0,6.911,5.578,12.49,12.487,12.49    c6.908,0,12.491-5.579,12.491-12.49C344.577,173.499,338.994,167.921,332.086,167.921z"
         style="fill:#ffffff;fill-opacity:1"
         id="path8" /></g></g><g
     id="Layer_1" /></svg>