<?xml version="1.0" encoding="UTF-8" standalone="no"?>
<!-- Generator: Adobe Illustrator 16.0.0, SVG Export Plug-In . SVG Version: 6.00 Build 0)  -->

<svg
   xmlns:dc="http://purl.org/dc/elements/1.1/"
   xmlns:cc="http://creativecommons.org/ns#"
   xmlns:rdf="http://www.w3.org/1999/02/22-rdf-syntax-ns#"
   xmlns:svg="http://www.w3.org/2000/svg"
   xmlns="http://www.w3.org/2000/svg"
   xmlns:sodipodi="http://sodipodi.sourceforge.net/DTD/sodipodi-0.dtd"
   xmlns:inkscape="http://www.inkscape.org/namespaces/inkscape"
   version="1.1"
   id="Capa_1"
   x="0px"
   y="0px"
   width="97.75px"
   height="97.75px"
   viewBox="0 0 97.75 97.75"
   style="enable-background:new 0 0 97.75 97.75;"
   xml:space="preserve"
   sodipodi:docname="twitter.svg"
   inkscape:version="0.92.1 r15371"><metadata
     id="metadata41"><rdf:RDF><cc:Work
         rdf:about=""><dc:format>image/svg+xml</dc:format><dc:type
           rdf:resource="http://purl.org/dc/dcmitype/StillImage" /></cc:Work></rdf:RDF></metadata><defs
     id="defs39" /><sodipodi:namedview
     pagecolor="#ffffff"
     bordercolor="#666666"
     borderopacity="1"
     objecttolerance="10"
     gridtolerance="10"
     guidetolerance="10"
     inkscape:pageopacity="0"
     inkscape:pageshadow="2"
     inkscape:window-width="1366"
     inkscape:window-height="740"
     id="namedview37"
     showgrid="false"
     inkscape:zoom="2.4143223"
     inkscape:cx="47.21822"
     inkscape:cy="48.875"
     inkscape:window-x="0"
     inkscape:window-y="0"
     inkscape:window-maximized="1"
     inkscape:current-layer="Capa_1" /><g
     id="g4"
     style="fill:#ffffff;fill-opacity:1"><path
       d="M48.875,0C21.882,0,0,21.882,0,48.875S21.882,97.75,48.875,97.75S97.75,75.868,97.75,48.875S75.868,0,48.875,0z    M78.43,35.841c0.023,0.577,0.035,1.155,0.035,1.736c0,20.878-15.887,42.473-42.473,42.473c-8.127,0-16.04-2.319-22.883-6.708   c-0.143-0.091-0.202-0.268-0.145-0.427c0.057-0.158,0.218-0.256,0.383-0.237c1.148,0.137,2.322,0.205,3.487,0.205   c6.323,0,12.309-1.955,17.372-5.664c-6.069-0.512-11.285-4.619-13.161-10.478c-0.039-0.122-0.011-0.255,0.073-0.351   c0.085-0.096,0.215-0.138,0.339-0.115c1.682,0.319,3.392,0.34,5.04,0.072c-6.259-1.945-10.658-7.808-10.658-14.483l0.002-0.194   c0.003-0.127,0.072-0.243,0.182-0.306c0.109-0.064,0.245-0.065,0.355-0.003c1.632,0.906,3.438,1.488,5.291,1.711   c-3.597-2.867-5.709-7.213-5.709-11.862c0-2.682,0.71-5.318,2.054-7.623c0.06-0.103,0.166-0.169,0.284-0.178   c0.119-0.012,0.234,0.04,0.309,0.132c7.362,9.03,18.191,14.59,29.771,15.305c-0.193-0.972-0.291-1.974-0.291-2.985   c0-8.361,6.802-15.162,15.162-15.162c4.11,0,8.082,1.689,10.929,4.641c3.209-0.654,6.266-1.834,9.09-3.508   c0.129-0.077,0.291-0.065,0.41,0.028c0.116,0.094,0.164,0.25,0.118,0.394c-0.957,2.993-2.823,5.604-5.33,7.489   c2.361-0.411,4.652-1.105,6.831-2.072c0.146-0.067,0.319-0.025,0.424,0.098c0.104,0.124,0.113,0.301,0.023,0.435   C83.759,31.175,81.299,33.744,78.43,35.841z"
       id="path2"
       style="fill:#ffffff;fill-opacity:1" /></g><g
     id="g6" /><g
     id="g8" /><g
     id="g10" /><g
     id="g12" /><g
     id="g14" /><g
     id="g16" /><g
     id="g18" /><g
     id="g20" /><g
     id="g22" /><g
     id="g24" /><g
     id="g26" /><g
     id="g28" /><g
     id="g30" /><g
     id="g32" /><g
     id="g34" /></svg>