<?xml version="1.0" encoding="UTF-8" standalone="no"?>
<svg
   xmlns:dc="http://purl.org/dc/elements/1.1/"
   xmlns:cc="http://creativecommons.org/ns#"
   xmlns:rdf="http://www.w3.org/1999/02/22-rdf-syntax-ns#"
   xmlns:svg="http://www.w3.org/2000/svg"
   xmlns="http://www.w3.org/2000/svg"
   xmlns:sodipodi="http://sodipodi.sourceforge.net/DTD/sodipodi-0.dtd"
   xmlns:inkscape="http://www.inkscape.org/namespaces/inkscape"
   height="512px"
   style="enable-background:new 0 0 512 512;"
   version="1.1"
   viewBox="0 0 512 512"
   width="512px"
   xml:space="preserve"
   id="svg6"
   sodipodi:docname="twitter2.svg"
   inkscape:version="0.92.1 r15371"><metadata
     id="metadata12"><rdf:RDF><cc:Work
         rdf:about=""><dc:format>image/svg+xml</dc:format><dc:type
           rdf:resource="http://purl.org/dc/dcmitype/StillImage" /></cc:Work></rdf:RDF></metadata><defs
     id="defs10" /><sodipodi:namedview
     pagecolor="#ffffff"
     bordercolor="#666666"
     borderopacity="1"
     objecttolerance="10"
     gridtolerance="10"
     guidetolerance="10"
     inkscape:pageopacity="0"
     inkscape:pageshadow="2"
     inkscape:window-width="1366"
     inkscape:window-height="740"
     id="namedview8"
     showgrid="false"
     inkscape:zoom="0.4609375"
     inkscape:cx="-121.49153"
     inkscape:cy="256"
     inkscape:window-x="0"
     inkscape:window-y="0"
     inkscape:window-maximized="1"
     inkscape:current-layer="svg6" /><g
     id="twitter__x2C__social__x2C__media_x2C__icons_x2C_"
     style="fill:#ffffff;fill-opacity:1"><path
       d="M434.478,16H77.519C43.718,16,16,43.719,16,77.521v356.957   C16,468.282,43.718,496,77.519,496h356.959C468.281,496,496,468.282,496,434.479V77.521C496,43.719,468.281,16,434.478,16z    M383.41,191.673c0.112,2.765,0.167,5.585,0.167,8.385c0,12.851-1.517,25.989-4.462,39.035   c-16.657,73.858-79.8,145.029-182.544,145.029c-37.094,0-71.649-10.701-100.767-29.07c5.154,0.609,10.378,0.914,15.707,0.914   c30.789,0,59.12-10.327,81.621-27.71c-28.762-0.505-53.016-19.215-61.391-44.915c4.022,0.754,8.132,1.183,12.354,1.183   c6.032,0,11.808-0.81,17.347-2.282c-22.142-4.414-40.068-19.729-48.088-40.025c-2.884-7.262-4.355-15.155-4.355-23.444   c0-0.252,0-0.531,0-0.815c9,4.855,18.869,7.766,29.625,8.107c-17.619-11.608-29.309-31.42-29.309-53.848   c0-11.854,3.22-22.971,8.857-32.535c32.408,39.143,80.815,64.911,135.437,67.618c-1.095-4.772-1.688-9.673-1.688-14.746   c0-35.729,29.414-64.699,65.717-64.699c18.913,0,35.985,7.841,47.944,20.421c14.971-2.892,29.077-8.287,41.759-15.722   c-4.93,15.13-15.322,27.809-28.904,35.811c13.306-1.563,25.957-5.031,37.739-10.166C407.392,171.163,396.229,182.56,383.41,191.673   z"
       style="fill-rule:evenodd;clip-rule:evenodd;fill:#ffffff;fill-opacity:1"
       id="path2" /></g><g
     id="Layer_1" /></svg>