<?xml version="1.0" encoding="UTF-8" standalone="no"?>
<svg
   xmlns:dc="http://purl.org/dc/elements/1.1/"
   xmlns:cc="http://creativecommons.org/ns#"
   xmlns:rdf="http://www.w3.org/1999/02/22-rdf-syntax-ns#"
   xmlns:svg="http://www.w3.org/2000/svg"
   xmlns="http://www.w3.org/2000/svg"
   xmlns:sodipodi="http://sodipodi.sourceforge.net/DTD/sodipodi-0.dtd"
   xmlns:inkscape="http://www.inkscape.org/namespaces/inkscape"
   id="Layer_1"
   style="enable-background:new 0 0 30.2 30.2;"
   version="1.1"
   viewBox="0 0 30.2 30.2"
   xml:space="preserve"
   sodipodi:docname="twitter3.svg"
   inkscape:version="0.92.1 r15371"><metadata
     id="metadata11"><rdf:RDF><cc:Work
         rdf:about=""><dc:format>image/svg+xml</dc:format><dc:type
           rdf:resource="http://purl.org/dc/dcmitype/StillImage" /></cc:Work></rdf:RDF></metadata><defs
     id="defs9" /><sodipodi:namedview
     pagecolor="#ffffff"
     bordercolor="#666666"
     borderopacity="1"
     objecttolerance="10"
     gridtolerance="10"
     guidetolerance="10"
     inkscape:pageopacity="0"
     inkscape:pageshadow="2"
     inkscape:window-width="1366"
     inkscape:window-height="740"
     id="namedview7"
     showgrid="false"
     inkscape:zoom="7.8145693"
     inkscape:cx="-7.1661019"
     inkscape:cy="15.1"
     inkscape:window-x="0"
     inkscape:window-y="0"
     inkscape:window-maximized="1"
     inkscape:current-layer="Layer_1" /><style
     type="text/css"
     id="style2">
	.st0{fill:none;stroke:#414042;stroke-width:1.25;stroke-linecap:round;stroke-linejoin:round;stroke-miterlimit:10;}
	.st1{fill:none;stroke:#414042;stroke-width:1.1713;stroke-linecap:round;stroke-linejoin:round;stroke-miterlimit:10;}
</style><path
     class="st0"
     d="m 9.8634495,21.802865 c 0,0 -4.497423,3.290509 -8.521433,2.836645 -4.0240102,-0.453863 14.7941545,6.694484 22.4871155,-4.08477 2.95883,-4.084769 3.195537,-8.283005 3.31389,-9.644595 0,-0.226932 0.118353,-0.567329 0.236707,-0.794261 l 2.248711,-3.0635769 -2.840478,0.79426 2.722126,-3.630906 -3.195538,1.36159 c -0.473413,0.226932 -1.06518,0.113466 -1.538593,-0.113466 -1.183532,-0.794261 -3.787303,-2.155851 -6.746134,-0.113466 -2.367065,1.588522 -2.958831,3.290509 -3.195538,4.425168 C 14.715933,10.569747 13.88746,11.137077 13.058987,10.910145 10.810276,10.456282 7.0229719,9.4350891 4.3008474,7.0523071 c -0.8284727,-0.907727 -2.485418,-0.453864 -2.485418,0.79426 0,1.134659 0.4734129,2.8366459 2.485418,5.1059629 l -2.485418,-1.134658 c 0,0 -0.4734129,3.630906 4.4974231,5.786757 l -2.4854181,0.453863"
     id="path4"
     style="fill:none;fill-opacity:1;stroke:#ffffff;stroke-width:1.44854712;stroke-linecap:round;stroke-linejoin:round;stroke-miterlimit:10;stroke-opacity:1"
     inkscape:connector-curvature="0" /></svg>