<?xml version="1.0" encoding="UTF-8" standalone="no"?>
<!-- Created with Inkscape (http://www.inkscape.org/) -->

<svg
   xmlns:dc="http://purl.org/dc/elements/1.1/"
   xmlns:cc="http://creativecommons.org/ns#"
   xmlns:rdf="http://www.w3.org/1999/02/22-rdf-syntax-ns#"
   xmlns:svg="http://www.w3.org/2000/svg"
   xmlns="http://www.w3.org/2000/svg"
   xmlns:sodipodi="http://sodipodi.sourceforge.net/DTD/sodipodi-0.dtd"
   xmlns:inkscape="http://www.inkscape.org/namespaces/inkscape"
   version="1.1"
   id="svg2"
   xml:space="preserve"
   width="860"
   height="310"
   viewBox="0 0 860 310"
   sodipodi:docname="Green Power Logo.svg"
   inkscape:version="0.92.1 r15371"><metadata
     id="metadata8"><rdf:RDF><cc:Work
         rdf:about=""><dc:format>image/svg+xml</dc:format><dc:type
           rdf:resource="http://purl.org/dc/dcmitype/StillImage" /><dc:title></dc:title></cc:Work></rdf:RDF></metadata><defs
     id="defs6"><clipPath
       clipPathUnits="userSpaceOnUse"
       id="clipPath18"><path
         d="m 46.543,306 c 0,-61.228 49.634,-110.862 110.861,-110.862 v 0 c 61.227,0 110.862,49.634 110.862,110.862 v 0 c 0,61.228 -49.635,110.862 -110.862,110.862 v 0 C 96.177,416.862 46.543,367.228 46.543,306"
         id="path16"
         inkscape:connector-curvature="0" /></clipPath><radialGradient
       fx="0"
       fy="0"
       cx="0"
       cy="0"
       r="1"
       gradientUnits="userSpaceOnUse"
       gradientTransform="matrix(110.86184,0,0,-110.86184,157.40385,306)"
       spreadMethod="pad"
       id="radialGradient30"><stop
         style="stop-opacity:1;stop-color:#f2ef1d"
         offset="0"
         id="stop24" /><stop
         style="stop-opacity:1;stop-color:#f2ef1d"
         offset="0.6595339"
         id="stop26" /><stop
         style="stop-opacity:1;stop-color:#f9a72b"
         offset="1"
         id="stop28" /></radialGradient><clipPath
       clipPathUnits="userSpaceOnUse"
       id="clipPath40"><path
         d="M 0,612 H 792 V 0 H 0 Z"
         id="path38"
         inkscape:connector-curvature="0" /></clipPath><clipPath
       clipPathUnits="userSpaceOnUse"
       id="clipPath84"><path
         d="m 55.407,262.499 c 2.152,-5.043 4.672,-9.892 7.518,-14.518 v 0 c 0.578,2.003 1.214,3.994 1.91,5.969 v 0 c -0.229,2.91 -0.349,5.851 -0.349,8.819 v 0 c 0,10.427 1.442,20.516 4.134,30.083 v 0 C 62.71,283.238 58.238,273.047 55.407,262.499"
         id="path82"
         inkscape:connector-curvature="0" /></clipPath><linearGradient
       x1="0"
       y1="0"
       x2="1"
       y2="0"
       gradientUnits="userSpaceOnUse"
       gradientTransform="matrix(13.212706,0,0,-13.212706,55.406433,270.41632)"
       spreadMethod="pad"
       id="linearGradient96"><stop
         style="stop-opacity:1;stop-color:#00adef"
         offset="0"
         id="stop90" /><stop
         style="stop-opacity:1;stop-color:#00adef"
         offset="0.04589257"
         id="stop92" /><stop
         style="stop-opacity:1;stop-color:#293d9b"
         offset="1"
         id="stop94" /></linearGradient><clipPath
       clipPathUnits="userSpaceOnUse"
       id="clipPath106"><path
         d="M 0,612 H 792 V 0 H 0 Z"
         id="path104"
         inkscape:connector-curvature="0" /></clipPath><clipPath
       clipPathUnits="userSpaceOnUse"
       id="clipPath118"><path
         d="m 252.536,362.944 c -0.059,0.099 -0.116,0.199 -0.175,0.298 v 0 c -0.175,0.038 -0.347,0.076 -0.52,0.113 v 0 c 0.23,-0.138 0.465,-0.272 0.695,-0.411"
         id="path116"
         inkscape:connector-curvature="0" /></clipPath><linearGradient
       x1="0"
       y1="0"
       x2="1"
       y2="0"
       gradientUnits="userSpaceOnUse"
       gradientTransform="matrix(0.6956251,0,0,-0.6956251,251.84064,363.14954)"
       spreadMethod="pad"
       id="linearGradient130"><stop
         style="stop-opacity:1;stop-color:#00adef"
         offset="0"
         id="stop124" /><stop
         style="stop-opacity:1;stop-color:#00adef"
         offset="0.04589257"
         id="stop126" /><stop
         style="stop-opacity:1;stop-color:#293d9b"
         offset="1"
         id="stop128" /></linearGradient><clipPath
       clipPathUnits="userSpaceOnUse"
       id="clipPath140"><path
         d="M 0,612 H 792 V 0 H 0 Z"
         id="path138"
         inkscape:connector-curvature="0" /></clipPath><clipPath
       clipPathUnits="userSpaceOnUse"
       id="clipPath152"><path
         d="m 68.62,292.852 c -2.692,-9.567 -4.134,-19.656 -4.134,-30.083 v 0 c 0,-2.968 0.12,-5.909 0.349,-8.819 v 0 c 4.759,13.52 12.232,26.333 21.951,37.954 v 0 c 3.143,14.371 9.07,27.696 17.193,39.387 v 0 C 89.455,320.256 77.438,307.2 68.62,292.852"
         id="path150"
         inkscape:connector-curvature="0" /></clipPath><linearGradient
       x1="0"
       y1="0"
       x2="1"
       y2="0"
       gradientUnits="userSpaceOnUse"
       gradientTransform="matrix(39.492592,0,0,-39.492592,64.48597,292.62024)"
       spreadMethod="pad"
       id="linearGradient164"><stop
         style="stop-opacity:1;stop-color:#00adef"
         offset="0"
         id="stop158" /><stop
         style="stop-opacity:1;stop-color:#00adef"
         offset="0.04589257"
         id="stop160" /><stop
         style="stop-opacity:1;stop-color:#293d9b"
         offset="1"
         id="stop162" /></linearGradient><clipPath
       clipPathUnits="userSpaceOnUse"
       id="clipPath174"><path
         d="M 0,612 H 792 V 0 H 0 Z"
         id="path172"
         inkscape:connector-curvature="0" /></clipPath><clipPath
       clipPathUnits="userSpaceOnUse"
       id="clipPath186"><path
         d="m 212.556,367.225 c 11.721,-4.176 22.532,-10.268 32.058,-17.9 v 0 c 5.441,-0.697 10.783,-1.633 16.01,-2.802 v 0 c -2.248,5.722 -4.962,11.209 -8.088,16.421 v 0 c -0.23,0.139 -0.465,0.273 -0.695,0.411 v 0 c -11.968,2.542 -24.535,3.879 -37.466,3.879 v 0 c -0.606,0 -1.211,-0.003 -1.819,-0.009"
         id="path184"
         inkscape:connector-curvature="0" /></clipPath><linearGradient
       x1="0"
       y1="0"
       x2="1"
       y2="0"
       gradientUnits="userSpaceOnUse"
       gradientTransform="matrix(48.067856,0,0,-48.067856,212.55627,356.87872)"
       spreadMethod="pad"
       id="linearGradient198"><stop
         style="stop-opacity:1;stop-color:#00adef"
         offset="0"
         id="stop192" /><stop
         style="stop-opacity:1;stop-color:#00adef"
         offset="0.04589257"
         id="stop194" /><stop
         style="stop-opacity:1;stop-color:#293d9b"
         offset="1"
         id="stop196" /></linearGradient><clipPath
       clipPathUnits="userSpaceOnUse"
       id="clipPath208"><path
         d="M 0,612 H 792 V 0 H 0 Z"
         id="path206"
         inkscape:connector-curvature="0" /></clipPath><clipPath
       clipPathUnits="userSpaceOnUse"
       id="clipPath220"><path
         d="m 137.925,351.229 c 2.38,-3.204 5.951,-8.25 10.236,-15.039 v 0 c 13.026,5.464 27.093,9.572 41.95,12.028 v 0 c -9.433,5.943 -17.616,10.202 -23.437,12.969 v 0 c -10.056,-2.584 -19.668,-5.936 -28.749,-9.958"
         id="path218"
         inkscape:connector-curvature="0" /></clipPath><linearGradient
       x1="0"
       y1="0"
       x2="1"
       y2="0"
       gradientUnits="userSpaceOnUse"
       gradientTransform="matrix(52.185829,0,0,-52.185829,137.92451,348.68857)"
       spreadMethod="pad"
       id="linearGradient232"><stop
         style="stop-opacity:1;stop-color:#00adef"
         offset="0"
         id="stop226" /><stop
         style="stop-opacity:1;stop-color:#00adef"
         offset="0.04589257"
         id="stop228" /><stop
         style="stop-opacity:1;stop-color:#293d9b"
         offset="1"
         id="stop230" /></linearGradient><clipPath
       clipPathUnits="userSpaceOnUse"
       id="clipPath242"><path
         d="M 0,612 H 792 V 0 H 0 Z"
         id="path240"
         inkscape:connector-curvature="0" /></clipPath><clipPath
       clipPathUnits="userSpaceOnUse"
       id="clipPath254"><path
         d="m 118.1,340.892 c -0.569,-5.251 -1.196,-12.825 -1.412,-21.889 v 0 c 9.582,6.639 20.13,12.428 31.473,17.187 v 0 c -4.285,6.789 -7.856,11.835 -10.236,15.039 v 0 c -6.934,-3.07 -13.556,-6.53 -19.825,-10.337"
         id="path252"
         inkscape:connector-curvature="0" /></clipPath><linearGradient
       x1="0"
       y1="0"
       x2="1"
       y2="0"
       gradientUnits="userSpaceOnUse"
       gradientTransform="matrix(31.472849,0,0,-31.472849,116.68765,335.11609)"
       spreadMethod="pad"
       id="linearGradient266"><stop
         style="stop-opacity:1;stop-color:#00adef"
         offset="0"
         id="stop260" /><stop
         style="stop-opacity:1;stop-color:#00adef"
         offset="0.04589257"
         id="stop262" /><stop
         style="stop-opacity:1;stop-color:#293d9b"
         offset="1"
         id="stop264" /></linearGradient><clipPath
       clipPathUnits="userSpaceOnUse"
       id="clipPath276"><path
         d="M 0,612 H 792 V 0 H 0 Z"
         id="path274"
         inkscape:connector-curvature="0" /></clipPath><clipPath
       clipPathUnits="userSpaceOnUse"
       id="clipPath288"><path
         d="M 103.979,331.291 C 95.856,319.6 89.929,306.275 86.786,291.904 v 0 c 8.39,10.031 18.456,19.168 29.902,27.099 v 0 c 0.216,9.064 0.843,16.638 1.412,21.889 v 0 c -4.933,-2.994 -9.646,-6.201 -14.121,-9.601"
         id="path286"
         inkscape:connector-curvature="0" /></clipPath><linearGradient
       x1="0"
       y1="0"
       x2="1"
       y2="0"
       gradientUnits="userSpaceOnUse"
       gradientTransform="matrix(31.313438,0,0,-31.313438,86.785965,316.39804)"
       spreadMethod="pad"
       id="linearGradient300"><stop
         style="stop-opacity:1;stop-color:#00adef"
         offset="0"
         id="stop294" /><stop
         style="stop-opacity:1;stop-color:#00adef"
         offset="0.04589257"
         id="stop296" /><stop
         style="stop-opacity:1;stop-color:#293d9b"
         offset="1"
         id="stop298" /></linearGradient><clipPath
       clipPathUnits="userSpaceOnUse"
       id="clipPath310"><path
         d="M 0,612 H 792 V 0 H 0 Z"
         id="path308"
         inkscape:connector-curvature="0" /></clipPath><clipPath
       clipPathUnits="userSpaceOnUse"
       id="clipPath322"><path
         d="m 186.979,365.256 c -6.942,-1.005 -13.716,-2.376 -20.305,-4.069 v 0 c 5.821,-2.767 14.004,-7.026 23.437,-12.969 v 0 c 1.278,0.212 2.564,0.41 3.855,0.598 v 0 c 17.402,2.519 34.455,2.582 50.648,0.509 v 0 c -9.526,7.632 -20.337,13.724 -32.058,17.9 v 0 c -8.4,-0.082 -16.945,-0.719 -25.577,-1.969"
         id="path320"
         inkscape:connector-curvature="0" /></clipPath><linearGradient
       x1="0"
       y1="0"
       x2="1"
       y2="0"
       gradientUnits="userSpaceOnUse"
       gradientTransform="matrix(77.939392,0,0,-77.939392,166.67386,357.72134)"
       spreadMethod="pad"
       id="linearGradient334"><stop
         style="stop-opacity:1;stop-color:#00adef"
         offset="0"
         id="stop328" /><stop
         style="stop-opacity:1;stop-color:#00adef"
         offset="0.04589257"
         id="stop330" /><stop
         style="stop-opacity:1;stop-color:#293d9b"
         offset="1"
         id="stop332" /></linearGradient><clipPath
       clipPathUnits="userSpaceOnUse"
       id="clipPath344"><path
         d="M 0,612 H 792 V 0 H 0 Z"
         id="path342"
         inkscape:connector-curvature="0" /></clipPath><clipPath
       clipPathUnits="userSpaceOnUse"
       id="clipPath356"><path
         d="m 62.925,247.981 c 1.069,-1.737 2.186,-3.44 3.346,-5.112 v 0 c -0.659,3.636 -1.141,7.332 -1.436,11.081 v 0 c -0.696,-1.975 -1.332,-3.966 -1.91,-5.969"
         id="path354"
         inkscape:connector-curvature="0" /></clipPath><linearGradient
       x1="0"
       y1="0"
       x2="1"
       y2="0"
       gradientUnits="userSpaceOnUse"
       gradientTransform="matrix(3.3455915,0,0,-3.3455915,62.924763,248.40982)"
       spreadMethod="pad"
       id="linearGradient368"><stop
         style="stop-opacity:1;stop-color:#00adef"
         offset="0"
         id="stop362" /><stop
         style="stop-opacity:1;stop-color:#00adef"
         offset="0.04589257"
         id="stop364" /><stop
         style="stop-opacity:1;stop-color:#293d9b"
         offset="1"
         id="stop366" /></linearGradient><clipPath
       clipPathUnits="userSpaceOnUse"
       id="clipPath378"><path
         d="M 0,612 H 792 V 0 H 0 Z"
         id="path376"
         inkscape:connector-curvature="0" /></clipPath><clipPath
       clipPathUnits="userSpaceOnUse"
       id="clipPath390"><path
         d="m 64.835,253.95 c 0.295,-3.749 0.777,-7.445 1.436,-11.081 v 0 c 3.124,-4.502 6.573,-8.762 10.314,-12.745 v 0 c 2.554,6.289 5.69,12.409 9.376,18.307 v 0 c -1.144,6.388 -1.742,12.966 -1.742,19.684 v 0 c 0,8.166 0.89,16.124 2.567,23.789 v 0 C 77.067,280.283 69.594,267.47 64.835,253.95"
         id="path388"
         inkscape:connector-curvature="0" /></clipPath><linearGradient
       x1="0"
       y1="0"
       x2="1"
       y2="0"
       gradientUnits="userSpaceOnUse"
       gradientTransform="matrix(21.950956,0,0,-21.950956,64.835007,261.01404)"
       spreadMethod="pad"
       id="linearGradient402"><stop
         style="stop-opacity:1;stop-color:#00adef"
         offset="0"
         id="stop396" /><stop
         style="stop-opacity:1;stop-color:#00adef"
         offset="0.04589257"
         id="stop398" /><stop
         style="stop-opacity:1;stop-color:#293d9b"
         offset="1"
         id="stop400" /></linearGradient><clipPath
       clipPathUnits="userSpaceOnUse"
       id="clipPath412"><path
         d="M 0,612 H 792 V 0 H 0 Z"
         id="path410"
         inkscape:connector-curvature="0" /></clipPath><clipPath
       clipPathUnits="userSpaceOnUse"
       id="clipPath424"><path
         d="m 266.482,325.901 c -1.294,7.135 -3.269,14.033 -5.858,20.622 v 0 c -5.227,1.169 -10.569,2.105 -16.01,2.802 v 0 c 8.368,-6.706 15.742,-14.598 21.868,-23.424"
         id="path422"
         inkscape:connector-curvature="0" /></clipPath><linearGradient
       x1="0"
       y1="0"
       x2="1"
       y2="0"
       gradientUnits="userSpaceOnUse"
       gradientTransform="matrix(21.868063,0,0,-21.868063,244.61325,337.61288)"
       spreadMethod="pad"
       id="linearGradient436"><stop
         style="stop-opacity:1;stop-color:#00adef"
         offset="0"
         id="stop430" /><stop
         style="stop-opacity:1;stop-color:#00adef"
         offset="0.04589257"
         id="stop432" /><stop
         style="stop-opacity:1;stop-color:#293d9b"
         offset="1"
         id="stop434" /></linearGradient><clipPath
       clipPathUnits="userSpaceOnUse"
       id="clipPath446"><path
         d="M 0,612 H 792 V 0 H 0 Z"
         id="path444"
         inkscape:connector-curvature="0" /></clipPath><clipPath
       clipPathUnits="userSpaceOnUse"
       id="clipPath458"><path
         d="m 116.688,319.003 c -0.242,-10.168 0.041,-22.208 1.517,-34.968 v 0 c 13.05,10.352 28.243,19.041 45.059,25.486 v 0 c -5.45,10.705 -10.659,19.627 -15.103,26.669 v 0 c -11.343,-4.759 -21.891,-10.548 -31.473,-17.187"
         id="path456"
         inkscape:connector-curvature="0" /></clipPath><linearGradient
       x1="0"
       y1="0"
       x2="1"
       y2="0"
       gradientUnits="userSpaceOnUse"
       gradientTransform="matrix(46.653419,0,0,-46.653419,116.61066,310.11209)"
       spreadMethod="pad"
       id="linearGradient470"><stop
         style="stop-opacity:1;stop-color:#00adef"
         offset="0"
         id="stop464" /><stop
         style="stop-opacity:1;stop-color:#00adef"
         offset="0.04589257"
         id="stop466" /><stop
         style="stop-opacity:1;stop-color:#293d9b"
         offset="1"
         id="stop468" /></linearGradient><clipPath
       clipPathUnits="userSpaceOnUse"
       id="clipPath480"><path
         d="M 0,612 H 792 V 0 H 0 Z"
         id="path478"
         inkscape:connector-curvature="0" /></clipPath><clipPath
       clipPathUnits="userSpaceOnUse"
       id="clipPath492"><path
         d="m 148.161,336.19 c 4.444,-7.042 9.653,-15.964 15.103,-26.669 v 0 c 12.681,4.86 26.278,8.449 40.568,10.517 v 0 c 6.998,1.014 13.938,1.622 20.791,1.863 v 0 c -12.028,11.039 -24.038,19.716 -34.512,26.317 v 0 c -14.857,-2.456 -28.924,-6.564 -41.95,-12.028"
         id="path490"
         inkscape:connector-curvature="0" /></clipPath><linearGradient
       x1="0"
       y1="0"
       x2="1"
       y2="0"
       gradientUnits="userSpaceOnUse"
       gradientTransform="matrix(76.462448,0,0,-76.462448,148.16051,328.86926)"
       spreadMethod="pad"
       id="linearGradient504"><stop
         style="stop-opacity:1;stop-color:#00adef"
         offset="0"
         id="stop498" /><stop
         style="stop-opacity:1;stop-color:#00adef"
         offset="0.04589257"
         id="stop500" /><stop
         style="stop-opacity:1;stop-color:#293d9b"
         offset="1"
         id="stop502" /></linearGradient><clipPath
       clipPathUnits="userSpaceOnUse"
       id="clipPath514"><path
         d="M 0,612 H 792 V 0 H 0 Z"
         id="path512"
         inkscape:connector-curvature="0" /></clipPath><clipPath
       clipPathUnits="userSpaceOnUse"
       id="clipPath526"><path
         d="m 193.966,348.816 c -1.291,-0.188 -2.577,-0.386 -3.855,-0.598 v 0 c 10.474,-6.601 22.484,-15.278 34.512,-26.317 v 0 c 14.852,0.522 29.284,-0.716 42.951,-3.524 v 0 c -0.282,2.533 -0.643,5.043 -1.092,7.524 v 0 c -6.126,8.826 -13.5,16.718 -21.868,23.424 v 0 c -7.591,0.972 -15.371,1.474 -23.287,1.474 v 0 c -8.971,0 -18.116,-0.645 -27.361,-1.983"
         id="path524"
         inkscape:connector-curvature="0" /></clipPath><linearGradient
       x1="0"
       y1="0"
       x2="1"
       y2="0"
       gradientUnits="userSpaceOnUse"
       gradientTransform="matrix(77.463898,0,0,-77.463898,190.11034,334.5878)"
       spreadMethod="pad"
       id="linearGradient538"><stop
         style="stop-opacity:1;stop-color:#00adef"
         offset="0"
         id="stop532" /><stop
         style="stop-opacity:1;stop-color:#00adef"
         offset="0.04589257"
         id="stop534" /><stop
         style="stop-opacity:1;stop-color:#293d9b"
         offset="1"
         id="stop536" /></linearGradient><clipPath
       clipPathUnits="userSpaceOnUse"
       id="clipPath548"><path
         d="M 0,612 H 792 V 0 H 0 Z"
         id="path546"
         inkscape:connector-curvature="0" /></clipPath><clipPath
       clipPathUnits="userSpaceOnUse"
       id="clipPath560"><path
         d="m 86.786,291.904 c -1.677,-7.665 -2.567,-15.623 -2.567,-23.789 v 0 c 0,-6.718 0.598,-13.296 1.742,-19.684 v 0 c 8.228,13.164 19.157,25.22 32.244,35.604 v 0 c -1.476,12.76 -1.759,24.8 -1.517,34.968 v 0 C 105.242,311.072 95.176,301.935 86.786,291.904"
         id="path558"
         inkscape:connector-curvature="0" /></clipPath><linearGradient
       x1="0"
       y1="0"
       x2="1"
       y2="0"
       gradientUnits="userSpaceOnUse"
       gradientTransform="matrix(33.986408,0,0,-33.986408,84.21859,283.71661)"
       spreadMethod="pad"
       id="linearGradient572"><stop
         style="stop-opacity:1;stop-color:#00adef"
         offset="0"
         id="stop566" /><stop
         style="stop-opacity:1;stop-color:#00adef"
         offset="0.04589257"
         id="stop568" /><stop
         style="stop-opacity:1;stop-color:#293d9b"
         offset="1"
         id="stop570" /></linearGradient><clipPath
       clipPathUnits="userSpaceOnUse"
       id="clipPath582"><path
         d="M 0,612 H 792 V 0 H 0 Z"
         id="path580"
         inkscape:connector-curvature="0" /></clipPath><clipPath
       clipPathUnits="userSpaceOnUse"
       id="clipPath594"><path
         d="m 76.585,230.124 c 6.877,-7.321 14.731,-13.712 23.364,-18.954 v 0 c -6.764,11.274 -11.584,23.848 -13.988,37.261 v 0 c -3.686,-5.898 -6.822,-12.018 -9.376,-18.307"
         id="path592"
         inkscape:connector-curvature="0" /></clipPath><linearGradient
       x1="0"
       y1="0"
       x2="1"
       y2="0"
       gradientUnits="userSpaceOnUse"
       gradientTransform="matrix(23.363541,0,0,-23.363541,76.584473,229.80037)"
       spreadMethod="pad"
       id="linearGradient606"><stop
         style="stop-opacity:1;stop-color:#00adef"
         offset="0"
         id="stop600" /><stop
         style="stop-opacity:1;stop-color:#00adef"
         offset="0.04589257"
         id="stop602" /><stop
         style="stop-opacity:1;stop-color:#293d9b"
         offset="1"
         id="stop604" /></linearGradient><clipPath
       clipPathUnits="userSpaceOnUse"
       id="clipPath616"><path
         d="M 0,612 H 792 V 0 H 0 Z"
         id="path614"
         inkscape:connector-curvature="0" /></clipPath><clipPath
       clipPathUnits="userSpaceOnUse"
       id="clipPath628"><path
         d="m 224.623,321.901 c 12.295,-11.284 24.604,-25.031 35.298,-41.534 v 0 c 1.756,-0.142 3.499,-0.318 5.236,-0.508 v 0 c 2.027,8.382 3.109,17.135 3.109,26.141 v 0 c 0,4.185 -0.241,8.312 -0.692,12.377 v 0 c -11.624,2.388 -23.802,3.641 -36.321,3.641 v 0 c -2.2,0 -4.41,-0.039 -6.63,-0.117"
         id="path626"
         inkscape:connector-curvature="0" /></clipPath><linearGradient
       x1="0"
       y1="0"
       x2="1"
       y2="0"
       gradientUnits="userSpaceOnUse"
       gradientTransform="matrix(43.642742,0,0,-43.642742,224.62294,300.93774)"
       spreadMethod="pad"
       id="linearGradient640"><stop
         style="stop-opacity:1;stop-color:#00adef"
         offset="0"
         id="stop634" /><stop
         style="stop-opacity:1;stop-color:#00adef"
         offset="0.04589257"
         id="stop636" /><stop
         style="stop-opacity:1;stop-color:#293d9b"
         offset="1"
         id="stop638" /></linearGradient><clipPath
       clipPathUnits="userSpaceOnUse"
       id="clipPath650"><path
         d="M 0,612 H 792 V 0 H 0 Z"
         id="path648"
         inkscape:connector-curvature="0" /></clipPath><clipPath
       clipPathUnits="userSpaceOnUse"
       id="clipPath662"><path
         d="m 85.961,248.431 c 2.404,-13.413 7.224,-25.987 13.988,-37.261 v 0 c 0.533,-0.324 1.074,-0.639 1.616,-0.955 v 0 c 7.236,10.92 16.351,21.03 27.022,29.995 v 0 c -5.582,14.416 -8.731,29.562 -10.382,43.825 v 0 C 105.118,273.651 94.189,261.595 85.961,248.431"
         id="path660"
         inkscape:connector-curvature="0" /></clipPath><linearGradient
       x1="0"
       y1="0"
       x2="1"
       y2="0"
       gradientUnits="userSpaceOnUse"
       gradientTransform="matrix(42.625496,0,0,-42.625496,85.961494,247.12451)"
       spreadMethod="pad"
       id="linearGradient674"><stop
         style="stop-opacity:1;stop-color:#00adef"
         offset="0"
         id="stop668" /><stop
         style="stop-opacity:1;stop-color:#00adef"
         offset="0.04589257"
         id="stop670" /><stop
         style="stop-opacity:1;stop-color:#293d9b"
         offset="1"
         id="stop672" /></linearGradient><clipPath
       clipPathUnits="userSpaceOnUse"
       id="clipPath684"><path
         d="M 0,612 H 792 V 0 H 0 Z"
         id="path682"
         inkscape:connector-curvature="0" /></clipPath><clipPath
       clipPathUnits="userSpaceOnUse"
       id="clipPath696"><path
         d="m 118.205,284.035 c 1.651,-14.263 4.8,-29.409 10.382,-43.825 v 0 c 14.69,12.342 32.329,22.508 52.096,29.605 v 0 c -5.657,15.143 -11.669,28.413 -17.419,39.706 v 0 c -16.816,-6.445 -32.009,-15.134 -45.059,-25.486"
         id="path694"
         inkscape:connector-curvature="0" /></clipPath><linearGradient
       x1="0"
       y1="0"
       x2="1"
       y2="0"
       gradientUnits="userSpaceOnUse"
       gradientTransform="matrix(62.4776,0,0,-62.4776,118.205,274.86548)"
       spreadMethod="pad"
       id="linearGradient708"><stop
         style="stop-opacity:1;stop-color:#00adef"
         offset="0"
         id="stop702" /><stop
         style="stop-opacity:1;stop-color:#00adef"
         offset="0.04589257"
         id="stop704" /><stop
         style="stop-opacity:1;stop-color:#293d9b"
         offset="1"
         id="stop706" /></linearGradient><clipPath
       clipPathUnits="userSpaceOnUse"
       id="clipPath718"><path
         d="M 0,612 H 792 V 0 H 0 Z"
         id="path716"
         inkscape:connector-curvature="0" /></clipPath><clipPath
       clipPathUnits="userSpaceOnUse"
       id="clipPath730"><path
         d="m 203.832,320.038 c -14.29,-2.068 -27.887,-5.657 -40.568,-10.517 v 0 c 5.75,-11.293 11.762,-24.563 17.419,-39.706 v 0 c 11.63,4.176 23.991,7.294 36.921,9.166 v 0 c 14.442,2.092 28.647,2.494 42.317,1.386 v 0 c -10.694,16.503 -23.003,30.25 -35.298,41.534 v 0 c -6.853,-0.241 -13.793,-0.849 -20.791,-1.863"
         id="path728"
         inkscape:connector-curvature="0" /></clipPath><linearGradient
       x1="0"
       y1="0"
       x2="1"
       y2="0"
       gradientUnits="userSpaceOnUse"
       gradientTransform="matrix(96.657028,0,0,-96.657028,163.26408,295.85806)"
       spreadMethod="pad"
       id="linearGradient742"><stop
         style="stop-opacity:1;stop-color:#00adef"
         offset="0"
         id="stop736" /><stop
         style="stop-opacity:1;stop-color:#00adef"
         offset="0.04589257"
         id="stop738" /><stop
         style="stop-opacity:1;stop-color:#293d9b"
         offset="1"
         id="stop740" /></linearGradient><clipPath
       clipPathUnits="userSpaceOnUse"
       id="clipPath752"><path
         d="M 0,612 H 792 V 0 H 0 Z"
         id="path750"
         inkscape:connector-curvature="0" /></clipPath><clipPath
       clipPathUnits="userSpaceOnUse"
       id="clipPath764"><path
         d="m 217.604,278.981 c -12.93,-1.872 -25.291,-4.99 -36.921,-9.166 v 0 c 4.599,-12.312 8.96,-25.862 12.751,-40.581 v 0 c 11.867,4.325 24.504,7.544 37.736,9.46 v 0 c 5.214,0.755 10.397,1.289 15.536,1.612 v 0 c 7.487,10.162 13.28,21.646 16.966,34.038 v 0 c -1.227,2.047 -2.477,4.056 -3.751,6.023 v 0 c -4.909,0.398 -9.889,0.601 -14.922,0.601 v 0 c -8.983,0 -18.14,-0.646 -27.395,-1.987"
         id="path762"
         inkscape:connector-curvature="0" /></clipPath><linearGradient
       x1="0"
       y1="0"
       x2="1"
       y2="0"
       gradientUnits="userSpaceOnUse"
       gradientTransform="matrix(82.989037,0,0,-82.989037,180.6826,255.10101)"
       spreadMethod="pad"
       id="linearGradient776"><stop
         style="stop-opacity:1;stop-color:#00adef"
         offset="0"
         id="stop770" /><stop
         style="stop-opacity:1;stop-color:#00adef"
         offset="0.04589257"
         id="stop772" /><stop
         style="stop-opacity:1;stop-color:#293d9b"
         offset="1"
         id="stop774" /></linearGradient><clipPath
       clipPathUnits="userSpaceOnUse"
       id="clipPath786"><path
         d="M 0,612 H 792 V 0 H 0 Z"
         id="path784"
         inkscape:connector-curvature="0" /></clipPath><clipPath
       clipPathUnits="userSpaceOnUse"
       id="clipPath798"><path
         d="m 263.672,274.344 c 0.541,1.819 1.036,3.657 1.485,5.515 v 0 c -1.737,0.19 -3.48,0.366 -5.236,0.508 v 0 c 1.274,-1.967 2.524,-3.976 3.751,-6.023"
         id="path796"
         inkscape:connector-curvature="0" /></clipPath><linearGradient
       x1="0"
       y1="0"
       x2="1"
       y2="0"
       gradientUnits="userSpaceOnUse"
       gradientTransform="matrix(5.2359896,0,0,-5.2359896,259.92111,277.35574)"
       spreadMethod="pad"
       id="linearGradient810"><stop
         style="stop-opacity:1;stop-color:#00adef"
         offset="0"
         id="stop804" /><stop
         style="stop-opacity:1;stop-color:#00adef"
         offset="0.04589257"
         id="stop806" /><stop
         style="stop-opacity:1;stop-color:#293d9b"
         offset="1"
         id="stop808" /></linearGradient><clipPath
       clipPathUnits="userSpaceOnUse"
       id="clipPath820"><path
         d="M 0,612 H 792 V 0 H 0 Z"
         id="path818"
         inkscape:connector-curvature="0" /></clipPath><clipPath
       clipPathUnits="userSpaceOnUse"
       id="clipPath832"><path
         d="m 101.565,210.215 c 11.205,-6.547 23.661,-11.183 36.923,-13.463 v 0 c 3.391,3.036 6.954,5.952 10.678,8.736 v 0 c -9.094,10.319 -15.747,22.243 -20.579,34.722 v 0 c -10.671,-8.965 -19.786,-19.075 -27.022,-29.995"
         id="path830"
         inkscape:connector-curvature="0" /></clipPath><linearGradient
       x1="0"
       y1="0"
       x2="1"
       y2="0"
       gradientUnits="userSpaceOnUse"
       gradientTransform="matrix(47.601543,0,0,-47.601543,101.56446,218.48116)"
       spreadMethod="pad"
       id="linearGradient844"><stop
         style="stop-opacity:1;stop-color:#00adef"
         offset="0"
         id="stop838" /><stop
         style="stop-opacity:1;stop-color:#00adef"
         offset="0.04589257"
         id="stop840" /><stop
         style="stop-opacity:1;stop-color:#293d9b"
         offset="1"
         id="stop842" /></linearGradient><clipPath
       clipPathUnits="userSpaceOnUse"
       id="clipPath854"><path
         d="M 0,612 H 792 V 0 H 0 Z"
         id="path852"
         inkscape:connector-curvature="0" /></clipPath><clipPath
       clipPathUnits="userSpaceOnUse"
       id="clipPath866"><path
         d="m 128.587,240.21 c 4.832,-12.479 11.485,-24.403 20.579,-34.722 v 0 c 12.961,9.688 27.878,17.772 44.268,23.746 v 0 c -3.791,14.719 -8.152,28.269 -12.751,40.581 v 0 c -19.767,-7.097 -37.406,-17.263 -52.096,-29.605"
         id="path864"
         inkscape:connector-curvature="0" /></clipPath><linearGradient
       x1="0"
       y1="0"
       x2="1"
       y2="0"
       gradientUnits="userSpaceOnUse"
       gradientTransform="matrix(64.847778,0,0,-64.847778,128.58699,237.65167)"
       spreadMethod="pad"
       id="linearGradient878"><stop
         style="stop-opacity:1;stop-color:#00adef"
         offset="0"
         id="stop872" /><stop
         style="stop-opacity:1;stop-color:#00adef"
         offset="0.04589257"
         id="stop874" /><stop
         style="stop-opacity:1;stop-color:#293d9b"
         offset="1"
         id="stop876" /></linearGradient><clipPath
       clipPathUnits="userSpaceOnUse"
       id="clipPath888"><path
         d="M 0,612 H 792 V 0 H 0 Z"
         id="path886"
         inkscape:connector-curvature="0" /></clipPath><clipPath
       clipPathUnits="userSpaceOnUse"
       id="clipPath900"><path
         d="m 138.488,196.752 c 6.148,-1.057 12.466,-1.613 18.916,-1.613 v 0 c 0.794,0 1.586,0.013 2.377,0.029 v 0 c -3.863,3.207 -7.391,6.662 -10.615,10.32 v 0 c -3.724,-2.784 -7.287,-5.7 -10.678,-8.736"
         id="path898"
         inkscape:connector-curvature="0" /></clipPath><linearGradient
       x1="0"
       y1="0"
       x2="1"
       y2="0"
       gradientUnits="userSpaceOnUse"
       gradientTransform="matrix(21.293112,0,0,-21.293112,138.48862,200.31311)"
       spreadMethod="pad"
       id="linearGradient912"><stop
         style="stop-opacity:1;stop-color:#00adef"
         offset="0"
         id="stop906" /><stop
         style="stop-opacity:1;stop-color:#00adef"
         offset="0.04589257"
         id="stop908" /><stop
         style="stop-opacity:1;stop-color:#293d9b"
         offset="1"
         id="stop910" /></linearGradient><clipPath
       clipPathUnits="userSpaceOnUse"
       id="clipPath922"><path
         d="M 0,612 H 792 V 0 H 0 Z"
         id="path920"
         inkscape:connector-curvature="0" /></clipPath><clipPath
       clipPathUnits="userSpaceOnUse"
       id="clipPath934"><path
         d="m 149.166,205.488 c 3.224,-3.658 6.752,-7.113 10.615,-10.32 v 0 c 13.935,0.294 27.235,3.16 39.449,8.14 v 0 c -1.712,9.006 -3.664,17.651 -5.796,25.926 v 0 c -16.39,-5.974 -31.307,-14.058 -44.268,-23.746"
         id="path932"
         inkscape:connector-curvature="0" /></clipPath><linearGradient
       x1="0"
       y1="0"
       x2="1"
       y2="0"
       gradientUnits="userSpaceOnUse"
       gradientTransform="matrix(50.064506,0,0,-50.064506,149.166,212.20128)"
       spreadMethod="pad"
       id="linearGradient946"><stop
         style="stop-opacity:1;stop-color:#00adef"
         offset="0"
         id="stop940" /><stop
         style="stop-opacity:1;stop-color:#00adef"
         offset="0.04589257"
         id="stop942" /><stop
         style="stop-opacity:1;stop-color:#293d9b"
         offset="1"
         id="stop944" /></linearGradient><clipPath
       clipPathUnits="userSpaceOnUse"
       id="clipPath956"><path
         d="M 0,612 H 792 V 0 H 0 Z"
         id="path954"
         inkscape:connector-curvature="0" /></clipPath><clipPath
       clipPathUnits="userSpaceOnUse"
       id="clipPath968"><path
         d="m 231.17,238.694 c -13.232,-1.916 -25.869,-5.135 -37.736,-9.46 v 0 c 2.132,-8.275 4.084,-16.92 5.796,-25.926 v 0 c 19.045,7.766 35.445,20.671 47.476,36.998 v 0 c -5.139,-0.323 -10.322,-0.857 -15.536,-1.612"
         id="path966"
         inkscape:connector-curvature="0" /></clipPath><linearGradient
       x1="0"
       y1="0"
       x2="1"
       y2="0"
       gradientUnits="userSpaceOnUse"
       gradientTransform="matrix(53.271069,0,0,-53.271069,193.43477,221.80753)"
       spreadMethod="pad"
       id="linearGradient980"><stop
         style="stop-opacity:1;stop-color:#00adef"
         offset="0"
         id="stop974" /><stop
         style="stop-opacity:1;stop-color:#00adef"
         offset="0.04589257"
         id="stop976" /><stop
         style="stop-opacity:1;stop-color:#293d9b"
         offset="1"
         id="stop978" /></linearGradient><clipPath
       clipPathUnits="userSpaceOnUse"
       id="clipPath990"><path
         d="M 0,612 H 792 V 0 H 0 Z"
         id="path988"
         inkscape:connector-curvature="0" /></clipPath><clipPath
       clipPathUnits="userSpaceOnUse"
       id="clipPath1002"><path
         d="m 222.177,289.796 c 18.212,-52.145 -3.488,-63.604 -9.621,-69.476 v 0 c -10.848,-10.383 -25.622,-14.832 -34.667,-17.012 v 0 c -19.866,-4.787 -45.925,-1.9 -66.598,5.912 v 0 c -12.916,4.882 -23.241,11.824 -29.17,16.346 v 0 c 37.342,-30.073 55.415,-30.428 82.305,-30.428 v 0 c 28.186,0 60.711,19.047 78.573,40.416 v 0 c 17.863,21.371 25.525,41.497 24.575,82.823 v 0 c -0.949,41.324 -43.943,76.537 -43.943,76.537 v 0 C 239.172,371.561 203.082,344.47 222.177,289.796 M 82.121,225.566 c -1.799,1.448 -3.645,2.968 -5.536,4.558 v 0 c 0,0 1.975,-1.843 5.536,-4.558"
         id="path1000"
         inkscape:connector-curvature="0" /></clipPath><linearGradient
       x1="0"
       y1="0"
       x2="1"
       y2="0"
       gradientUnits="userSpaceOnUse"
       gradientTransform="matrix(0,199.77536,199.77536,0,172.11844,195.13817)"
       spreadMethod="pad"
       id="linearGradient1014"><stop
         style="stop-opacity:1;stop-color:#80cc28"
         offset="0"
         id="stop1008" /><stop
         style="stop-opacity:1;stop-color:#00a650"
         offset="0.85154214"
         id="stop1010" /><stop
         style="stop-opacity:1;stop-color:#00a650"
         offset="1"
         id="stop1012" /></linearGradient><clipPath
       clipPathUnits="userSpaceOnUse"
       id="clipPath1024"><path
         d="M 0,612 H 792 V 0 H 0 Z"
         id="path1022"
         inkscape:connector-curvature="0" /></clipPath></defs><sodipodi:namedview
     pagecolor="#ffffff"
     bordercolor="#666666"
     borderopacity="1"
     objecttolerance="10"
     gridtolerance="10"
     guidetolerance="10"
     inkscape:pageopacity="0"
     inkscape:pageshadow="2"
     inkscape:window-width="1366"
     inkscape:window-height="740"
     id="namedview4"
     showgrid="false"
     inkscape:zoom="0.56818182"
     inkscape:cx="392.02368"
     inkscape:cy="305.82832"
     inkscape:window-x="0"
     inkscape:window-y="0"
     inkscape:window-maximized="1"
     inkscape:current-layer="g10" /><g
     id="g10"
     inkscape:groupmode="layer"
     inkscape:label="Green Power Logo"
     transform="matrix(1.3333333,0,0,-1.3333333,0,310)"><g
       id="g12"
       transform="translate(-40.740001,-190.86)"><g
         id="g14"
         clip-path="url(#clipPath18)"><g
           id="g20"><g
             id="g22"><path
               d="m 46.543,306 c 0,-61.228 49.634,-110.862 110.861,-110.862 v 0 c 61.227,0 110.862,49.634 110.862,110.862 v 0 c 0,61.228 -49.635,110.862 -110.862,110.862 v 0 C 96.177,416.862 46.543,367.228 46.543,306"
               style="fill:url(#radialGradient30);stroke:none"
               id="path32"
               inkscape:connector-curvature="0" /></g></g></g></g><g
       id="g34"
       transform="translate(-40.740001,-190.86)"><g
         id="g36"
         clip-path="url(#clipPath40)"><g
           id="g42"
           transform="translate(268.2658,306)"><path
             d="m 0,0 c 0,-61.228 -49.635,-110.862 -110.862,-110.862 -61.227,0 -110.862,49.634 -110.862,110.862 0,61.228 49.635,110.862 110.862,110.862 C -49.635,110.862 0,61.228 0,0 Z"
             style="fill:none;stroke:#ffffff;stroke-width:3;stroke-linecap:butt;stroke-linejoin:miter;stroke-miterlimit:10;stroke-dasharray:none;stroke-opacity:1"
             id="path44"
             inkscape:connector-curvature="0" /></g><g
           id="g46"
           transform="translate(128.5871,413.0713)"><path
             d="m 0,0 45.611,-22.607 -81.846,5.305"
             style="fill:none;stroke:#ffffff;stroke-width:2;stroke-linecap:butt;stroke-linejoin:miter;stroke-miterlimit:10;stroke-dasharray:none;stroke-opacity:1"
             id="path48"
             inkscape:connector-curvature="0" /></g><g
           id="g50"
           transform="translate(66.2707,369.1304)"><path
             d="M 0,0 107.928,21.333 -17.362,-40.261"
             style="fill:none;stroke:#ffffff;stroke-width:2;stroke-linecap:butt;stroke-linejoin:miter;stroke-miterlimit:10;stroke-dasharray:none;stroke-opacity:1"
             id="path52"
             inkscape:connector-curvature="0" /></g><g
           id="g54"
           transform="translate(52.9103,268.9014)"><path
             d="M 0,0 121.288,121.563 114.906,86.26"
             style="fill:none;stroke:#ffffff;stroke-width:2;stroke-linecap:butt;stroke-linejoin:miter;stroke-miterlimit:10;stroke-dasharray:none;stroke-opacity:1"
             id="path56"
             inkscape:connector-curvature="0" /></g><g
           id="g58"
           transform="translate(200.2316,352.7983)"><path
             d="M 0,0 -24.771,36.902 40.157,11.764"
             style="fill:none;stroke:#ffffff;stroke-width:2;stroke-linecap:butt;stroke-linejoin:miter;stroke-miterlimit:10;stroke-dasharray:none;stroke-opacity:1"
             id="path60"
             inkscape:connector-curvature="0" /></g><g
           id="g62"
           transform="translate(223.631,394.9136)"><path
             d="m 0,0 -49.433,-4.45 27.61,17.138"
             style="fill:none;stroke:#ffffff;stroke-width:2;stroke-linecap:butt;stroke-linejoin:miter;stroke-miterlimit:10;stroke-dasharray:none;stroke-opacity:1"
             id="path64"
             inkscape:connector-curvature="0" /></g><g
           id="g66"
           transform="translate(174.1984,390.4639)"><path
             d="M 0,0 -16.795,26.398"
             style="fill:none;stroke:#ffffff;stroke-width:2;stroke-linecap:butt;stroke-linejoin:miter;stroke-miterlimit:10;stroke-dasharray:none;stroke-opacity:1"
             id="path68"
             inkscape:connector-curvature="0" /></g><g
           id="g70"
           transform="translate(197.4279,390.4639)"><path
             d="m 0,0 c 0,-12.83 -10.4,-23.23 -23.229,-23.23 -12.831,0 -23.231,10.4 -23.231,23.23 0,12.83 10.4,23.23 23.231,23.23 C -10.4,23.23 0,12.83 0,0"
             style="fill:#ffffff;fill-opacity:1;fill-rule:nonzero;stroke:none"
             id="path72"
             inkscape:connector-curvature="0" /></g><g
           id="g74"
           transform="translate(197.4279,390.4639)"><path
             d="m 0,0 c 0,-12.83 -10.4,-23.23 -23.229,-23.23 -12.831,0 -23.231,10.4 -23.231,23.23 0,12.83 10.4,23.23 23.231,23.23 C -10.4,23.23 0,12.83 0,0 Z"
             style="fill:none;stroke:#ffffff;stroke-width:1;stroke-linecap:butt;stroke-linejoin:miter;stroke-miterlimit:10;stroke-dasharray:none;stroke-opacity:1"
             id="path76"
             inkscape:connector-curvature="0" /></g></g></g><g
       id="g78"
       transform="translate(-40.740001,-190.86)"><g
         id="g80"
         clip-path="url(#clipPath84)"><g
           id="g86"><g
             id="g88"><path
               d="m 55.407,262.499 c 2.152,-5.043 4.672,-9.892 7.518,-14.518 v 0 c 0.578,2.003 1.214,3.994 1.91,5.969 v 0 c -0.229,2.91 -0.349,5.851 -0.349,8.819 v 0 c 0,10.427 1.442,20.516 4.134,30.083 v 0 C 62.71,283.238 58.238,273.047 55.407,262.499"
               style="fill:url(#linearGradient96);stroke:none"
               id="path98"
               inkscape:connector-curvature="0" /></g></g></g></g><g
       id="g100"
       transform="translate(-40.740001,-190.86)"><g
         id="g102"
         clip-path="url(#clipPath106)"><g
           id="g108"
           transform="translate(64.8351,253.9502)"><path
             d="m 0,0 c -0.229,2.91 -0.35,5.851 -0.35,8.819 0,10.427 1.443,20.516 4.134,30.082 C -2.125,29.288 -6.597,19.098 -9.429,8.549 -7.275,3.506 -4.757,-1.344 -1.91,-5.97 -1.332,-3.966 -0.695,-1.976 0,0 Z"
             style="fill:none;stroke:#ffffff;stroke-width:3;stroke-linecap:butt;stroke-linejoin:miter;stroke-miterlimit:10;stroke-dasharray:none;stroke-opacity:1"
             id="path110"
             inkscape:connector-curvature="0" /></g></g></g><g
       id="g112"
       transform="translate(-40.740001,-190.86)"><g
         id="g114"
         clip-path="url(#clipPath118)"><g
           id="g120"><g
             id="g122"><path
               d="m 252.536,362.944 c -0.059,0.099 -0.116,0.199 -0.175,0.298 v 0 c -0.175,0.038 -0.347,0.076 -0.52,0.113 v 0 c 0.23,-0.138 0.465,-0.272 0.695,-0.411"
               style="fill:url(#linearGradient130);stroke:none"
               id="path132"
               inkscape:connector-curvature="0" /></g></g></g></g><g
       id="g134"
       transform="translate(-40.740001,-190.86)"><g
         id="g136"
         clip-path="url(#clipPath140)"><g
           id="g142"
           transform="translate(252.5363,362.9438)"><path
             d="M 0,0 C -0.06,0.099 -0.116,0.199 -0.176,0.298 -0.35,0.335 -0.522,0.375 -0.695,0.411 -0.465,0.273 -0.23,0.14 0,0 Z"
             style="fill:none;stroke:#ffffff;stroke-width:3;stroke-linecap:butt;stroke-linejoin:miter;stroke-miterlimit:10;stroke-dasharray:none;stroke-opacity:1"
             id="path144"
             inkscape:connector-curvature="0" /></g></g></g><g
       id="g146"
       transform="translate(-40.740001,-190.86)"><g
         id="g148"
         clip-path="url(#clipPath152)"><g
           id="g154"><g
             id="g156"><path
               d="m 68.62,292.852 c -2.692,-9.567 -4.134,-19.656 -4.134,-30.083 v 0 c 0,-2.968 0.12,-5.909 0.349,-8.819 v 0 c 4.759,13.52 12.232,26.333 21.951,37.954 v 0 c 3.143,14.371 9.07,27.696 17.193,39.387 v 0 C 89.455,320.256 77.438,307.2 68.62,292.852"
               style="fill:url(#linearGradient164);stroke:none"
               id="path166"
               inkscape:connector-curvature="0" /></g></g></g></g><g
       id="g168"
       transform="translate(-40.740001,-190.86)"><g
         id="g170"
         clip-path="url(#clipPath174)"><g
           id="g176"
           transform="translate(103.9787,331.2905)"><path
             d="m 0,0 c -14.524,-11.035 -26.541,-24.091 -35.359,-38.439 -2.692,-9.566 -4.134,-19.655 -4.134,-30.082 0,-2.969 0.12,-5.909 0.349,-8.819 4.759,13.519 12.232,26.333 21.952,37.954 C -14.05,-25.016 -8.122,-11.69 0,0 Z"
             style="fill:none;stroke:#ffffff;stroke-width:3;stroke-linecap:butt;stroke-linejoin:miter;stroke-miterlimit:10;stroke-dasharray:none;stroke-opacity:1"
             id="path178"
             inkscape:connector-curvature="0" /></g></g></g><g
       id="g180"
       transform="translate(-40.740001,-190.86)"><g
         id="g182"
         clip-path="url(#clipPath186)"><g
           id="g188"><g
             id="g190"><path
               d="m 212.556,367.225 c 11.721,-4.176 22.532,-10.268 32.058,-17.9 v 0 c 5.441,-0.697 10.783,-1.633 16.01,-2.802 v 0 c -2.248,5.722 -4.962,11.209 -8.088,16.421 v 0 c -0.23,0.139 -0.465,0.273 -0.695,0.411 v 0 c -11.968,2.542 -24.535,3.879 -37.466,3.879 v 0 c -0.606,0 -1.211,-0.003 -1.819,-0.009"
               style="fill:url(#linearGradient198);stroke:none"
               id="path200"
               inkscape:connector-curvature="0" /></g></g></g></g><g
       id="g202"
       transform="translate(-40.740001,-190.86)"><g
         id="g204"
         clip-path="url(#clipPath208)"><g
           id="g210"
           transform="translate(212.5558,367.2251)"><path
             d="m 0,0 c 11.722,-4.176 22.532,-10.268 32.058,-17.9 5.441,-0.696 10.784,-1.633 16.01,-2.802 -2.248,5.722 -4.962,11.209 -8.088,16.421 -0.23,0.139 -0.464,0.273 -0.695,0.411 C 26.756,-1.208 13.572,0.132 0,0 Z"
             style="fill:none;stroke:#ffffff;stroke-width:3;stroke-linecap:butt;stroke-linejoin:miter;stroke-miterlimit:10;stroke-dasharray:none;stroke-opacity:1"
             id="path212"
             inkscape:connector-curvature="0" /></g></g></g><g
       id="g214"
       transform="translate(-40.740001,-190.86)"><g
         id="g216"
         clip-path="url(#clipPath220)"><g
           id="g222"><g
             id="g224"><path
               d="m 137.925,351.229 c 2.38,-3.204 5.951,-8.25 10.236,-15.039 v 0 c 13.026,5.464 27.093,9.572 41.95,12.028 v 0 c -9.433,5.943 -17.616,10.202 -23.437,12.969 v 0 c -10.056,-2.584 -19.668,-5.936 -28.749,-9.958"
               style="fill:url(#linearGradient232);stroke:none"
               id="path234"
               inkscape:connector-curvature="0" /></g></g></g></g><g
       id="g236"
       transform="translate(-40.740001,-190.86)"><g
         id="g238"
         clip-path="url(#clipPath242)"><g
           id="g244"
           transform="translate(190.1105,348.2178)"><path
             d="m 0,0 c -9.433,5.943 -17.615,10.202 -23.437,12.97 -10.055,-2.584 -19.667,-5.937 -28.749,-9.958 2.38,-3.204 5.952,-8.251 10.236,-15.04 C -28.923,-6.563 -14.856,-2.456 0,0 Z"
             style="fill:none;stroke:#ffffff;stroke-width:3;stroke-linecap:butt;stroke-linejoin:miter;stroke-miterlimit:10;stroke-dasharray:none;stroke-opacity:1"
             id="path246"
             inkscape:connector-curvature="0" /></g></g></g><g
       id="g248"
       transform="translate(-40.740001,-190.86)"><g
         id="g250"
         clip-path="url(#clipPath254)"><g
           id="g256"><g
             id="g258"><path
               d="m 118.1,340.892 c -0.569,-5.251 -1.196,-12.825 -1.412,-21.889 v 0 c 9.582,6.639 20.13,12.428 31.473,17.187 v 0 c -4.285,6.789 -7.856,11.835 -10.236,15.039 v 0 c -6.934,-3.07 -13.556,-6.53 -19.825,-10.337"
               style="fill:url(#linearGradient266);stroke:none"
               id="path268"
               inkscape:connector-curvature="0" /></g></g></g></g><g
       id="g270"
       transform="translate(-40.740001,-190.86)"><g
         id="g272"
         clip-path="url(#clipPath276)"><g
           id="g278"
           transform="translate(148.1603,336.1899)"><path
             d="M 0,0 C -4.284,6.789 -7.855,11.835 -10.235,15.04 -17.169,11.969 -23.791,8.509 -30.061,4.702 -30.629,-0.549 -31.257,-8.123 -31.473,-17.187 -21.891,-10.548 -11.343,-4.758 0,0 Z"
             style="fill:none;stroke:#ffffff;stroke-width:3;stroke-linecap:butt;stroke-linejoin:miter;stroke-miterlimit:10;stroke-dasharray:none;stroke-opacity:1"
             id="path280"
             inkscape:connector-curvature="0" /></g></g></g><g
       id="g282"
       transform="translate(-40.740001,-190.86)"><g
         id="g284"
         clip-path="url(#clipPath288)"><g
           id="g290"><g
             id="g292"><path
               d="M 103.979,331.291 C 95.856,319.6 89.929,306.275 86.786,291.904 v 0 c 8.39,10.031 18.456,19.168 29.902,27.099 v 0 c 0.216,9.064 0.843,16.638 1.412,21.889 v 0 c -4.933,-2.994 -9.646,-6.201 -14.121,-9.601"
               style="fill:url(#linearGradient300);stroke:none"
               id="path302"
               inkscape:connector-curvature="0" /></g></g></g></g><g
       id="g304"
       transform="translate(-40.740001,-190.86)"><g
         id="g306"
         clip-path="url(#clipPath310)"><g
           id="g312"
           transform="translate(116.6877,319.0029)"><path
             d="M 0,0 C 0.216,9.064 0.844,16.638 1.412,21.889 -3.521,18.895 -8.233,15.688 -12.709,12.288 -20.831,0.597 -26.759,-12.729 -29.901,-27.099 -21.512,-17.068 -11.446,-7.931 0,0 Z"
             style="fill:none;stroke:#ffffff;stroke-width:3;stroke-linecap:butt;stroke-linejoin:miter;stroke-miterlimit:10;stroke-dasharray:none;stroke-opacity:1"
             id="path314"
             inkscape:connector-curvature="0" /></g></g></g><g
       id="g316"
       transform="translate(-40.740001,-190.86)"><g
         id="g318"
         clip-path="url(#clipPath322)"><g
           id="g324"><g
             id="g326"><path
               d="m 186.979,365.256 c -6.942,-1.005 -13.716,-2.376 -20.305,-4.069 v 0 c 5.821,-2.767 14.004,-7.026 23.437,-12.969 v 0 c 1.278,0.212 2.564,0.41 3.855,0.598 v 0 c 17.402,2.519 34.455,2.582 50.648,0.509 v 0 c -9.526,7.632 -20.337,13.724 -32.058,17.9 v 0 c -8.4,-0.082 -16.945,-0.719 -25.577,-1.969"
               style="fill:url(#linearGradient334);stroke:none"
               id="path336"
               inkscape:connector-curvature="0" /></g></g></g></g><g
       id="g338"
       transform="translate(-40.740001,-190.86)"><g
         id="g340"
         clip-path="url(#clipPath344)"><g
           id="g346"
           transform="translate(193.966,348.8159)"><path
             d="M 0,0 C 17.401,2.519 34.455,2.582 50.647,0.509 41.122,8.142 30.312,14.233 18.59,18.409 10.19,18.327 1.646,17.69 -6.986,16.44 -13.929,15.435 -20.703,14.064 -27.292,12.372 -21.471,9.604 -13.288,5.345 -3.855,-0.598 -2.576,-0.387 -1.291,-0.187 0,0 Z"
             style="fill:none;stroke:#ffffff;stroke-width:3;stroke-linecap:butt;stroke-linejoin:miter;stroke-miterlimit:10;stroke-dasharray:none;stroke-opacity:1"
             id="path348"
             inkscape:connector-curvature="0" /></g></g></g><g
       id="g350"
       transform="translate(-40.740001,-190.86)"><g
         id="g352"
         clip-path="url(#clipPath356)"><g
           id="g358"><g
             id="g360"><path
               d="m 62.925,247.981 c 1.069,-1.737 2.186,-3.44 3.346,-5.112 v 0 c -0.659,3.636 -1.141,7.332 -1.436,11.081 v 0 c -0.696,-1.975 -1.332,-3.966 -1.91,-5.969"
               style="fill:url(#linearGradient368);stroke:none"
               id="path370"
               inkscape:connector-curvature="0" /></g></g></g></g><g
       id="g372"
       transform="translate(-40.740001,-190.86)"><g
         id="g374"
         clip-path="url(#clipPath378)"><g
           id="g380"
           transform="translate(62.925,247.9805)"><path
             d="M 0,0 C 1.068,-1.736 2.186,-3.439 3.346,-5.111 2.687,-1.476 2.205,2.221 1.91,5.97 1.215,3.994 0.578,2.004 0,0 Z"
             style="fill:none;stroke:#ffffff;stroke-width:3;stroke-linecap:butt;stroke-linejoin:miter;stroke-miterlimit:10;stroke-dasharray:none;stroke-opacity:1"
             id="path382"
             inkscape:connector-curvature="0" /></g></g></g><g
       id="g384"
       transform="translate(-40.740001,-190.86)"><g
         id="g386"
         clip-path="url(#clipPath390)"><g
           id="g392"><g
             id="g394"><path
               d="m 64.835,253.95 c 0.295,-3.749 0.777,-7.445 1.436,-11.081 v 0 c 3.124,-4.502 6.573,-8.762 10.314,-12.745 v 0 c 2.554,6.289 5.69,12.409 9.376,18.307 v 0 c -1.144,6.388 -1.742,12.966 -1.742,19.684 v 0 c 0,8.166 0.89,16.124 2.567,23.789 v 0 C 77.067,280.283 69.594,267.47 64.835,253.95"
               style="fill:url(#linearGradient402);stroke:none"
               id="path404"
               inkscape:connector-curvature="0" /></g></g></g></g><g
       id="g406"
       transform="translate(-40.740001,-190.86)"><g
         id="g408"
         clip-path="url(#clipPath412)"><g
           id="g414"
           transform="translate(85.9611,248.4307)"><path
             d="m 0,0 c -1.145,6.388 -1.742,12.966 -1.742,19.684 0,8.167 0.89,16.125 2.567,23.79 -9.72,-11.621 -17.192,-24.435 -21.951,-37.954 0.295,-3.749 0.776,-7.446 1.436,-11.082 3.124,-4.501 6.573,-8.761 10.313,-12.745 C -6.822,-12.018 -3.686,-5.897 0,0 Z"
             style="fill:none;stroke:#ffffff;stroke-width:3;stroke-linecap:butt;stroke-linejoin:miter;stroke-miterlimit:10;stroke-dasharray:none;stroke-opacity:1"
             id="path416"
             inkscape:connector-curvature="0" /></g></g></g><g
       id="g418"
       transform="translate(-40.740001,-190.86)"><g
         id="g420"
         clip-path="url(#clipPath424)"><g
           id="g426"><g
             id="g428"><path
               d="m 266.482,325.901 c -1.294,7.135 -3.269,14.033 -5.858,20.622 v 0 c -5.227,1.169 -10.569,2.105 -16.01,2.802 v 0 c 8.368,-6.706 15.742,-14.598 21.868,-23.424"
               style="fill:url(#linearGradient436);stroke:none"
               id="path438"
               inkscape:connector-curvature="0" /></g></g></g></g><g
       id="g440"
       transform="translate(-40.740001,-190.86)"><g
         id="g442"
         clip-path="url(#clipPath446)"><g
           id="g448"
           transform="translate(266.4816,325.9004)"><path
             d="m 0,0 c -1.294,7.135 -3.269,14.033 -5.857,20.623 -5.227,1.169 -10.57,2.106 -16.011,2.802 C -13.5,16.719 -6.126,8.827 0,0 Z"
             style="fill:none;stroke:#ffffff;stroke-width:3;stroke-linecap:butt;stroke-linejoin:miter;stroke-miterlimit:10;stroke-dasharray:none;stroke-opacity:1"
             id="path450"
             inkscape:connector-curvature="0" /></g></g></g><g
       id="g452"
       transform="translate(-40.740001,-190.86)"><g
         id="g454"
         clip-path="url(#clipPath458)"><g
           id="g460"><g
             id="g462"><path
               d="m 116.688,319.003 c -0.242,-10.168 0.041,-22.208 1.517,-34.968 v 0 c 13.05,10.352 28.243,19.041 45.059,25.486 v 0 c -5.45,10.705 -10.659,19.627 -15.103,26.669 v 0 c -11.343,-4.759 -21.891,-10.548 -31.473,-17.187"
               style="fill:url(#linearGradient470);stroke:none"
               id="path472"
               inkscape:connector-curvature="0" /></g></g></g></g><g
       id="g474"
       transform="translate(-40.740001,-190.86)"><g
         id="g476"
         clip-path="url(#clipPath480)"><g
           id="g482"
           transform="translate(148.1603,336.1899)"><path
             d="m 0,0 c -11.343,-4.758 -21.891,-10.548 -31.473,-17.187 -0.242,-10.168 0.041,-22.208 1.518,-34.969 13.05,10.354 28.243,19.042 45.059,25.487 C 9.653,-15.964 4.444,-7.042 0,0 Z"
             style="fill:none;stroke:#ffffff;stroke-width:3;stroke-linecap:butt;stroke-linejoin:miter;stroke-miterlimit:10;stroke-dasharray:none;stroke-opacity:1"
             id="path484"
             inkscape:connector-curvature="0" /></g></g></g><g
       id="g486"
       transform="translate(-40.740001,-190.86)"><g
         id="g488"
         clip-path="url(#clipPath492)"><g
           id="g494"><g
             id="g496"><path
               d="m 148.161,336.19 c 4.444,-7.042 9.653,-15.964 15.103,-26.669 v 0 c 12.681,4.86 26.278,8.449 40.568,10.517 v 0 c 6.998,1.014 13.938,1.622 20.791,1.863 v 0 c -12.028,11.039 -24.038,19.716 -34.512,26.317 v 0 c -14.857,-2.456 -28.924,-6.564 -41.95,-12.028"
               style="fill:url(#linearGradient504);stroke:none"
               id="path506"
               inkscape:connector-curvature="0" /></g></g></g></g><g
       id="g508"
       transform="translate(-40.740001,-190.86)"><g
         id="g510"
         clip-path="url(#clipPath514)"><g
           id="g516"
           transform="translate(203.8322,320.0386)"><path
             d="M 0,0 C 6.998,1.013 13.938,1.622 20.791,1.862 8.763,12.901 -3.247,21.579 -13.722,28.179 -28.578,25.724 -42.645,21.616 -55.672,16.151 -51.228,9.109 -46.019,0.187 -40.568,-10.518 -27.888,-5.658 -14.29,-2.068 0,0 Z"
             style="fill:none;stroke:#ffffff;stroke-width:3;stroke-linecap:butt;stroke-linejoin:miter;stroke-miterlimit:10;stroke-dasharray:none;stroke-opacity:1"
             id="path518"
             inkscape:connector-curvature="0" /></g></g></g><g
       id="g520"
       transform="translate(-40.740001,-190.86)"><g
         id="g522"
         clip-path="url(#clipPath526)"><g
           id="g528"><g
             id="g530"><path
               d="m 193.966,348.816 c -1.291,-0.188 -2.577,-0.386 -3.855,-0.598 v 0 c 10.474,-6.601 22.484,-15.278 34.512,-26.317 v 0 c 14.852,0.522 29.284,-0.716 42.951,-3.524 v 0 c -0.282,2.533 -0.643,5.043 -1.092,7.524 v 0 c -6.126,8.826 -13.5,16.718 -21.868,23.424 v 0 c -7.591,0.972 -15.371,1.474 -23.287,1.474 v 0 c -8.971,0 -18.116,-0.645 -27.361,-1.983"
               style="fill:url(#linearGradient538);stroke:none"
               id="path540"
               inkscape:connector-curvature="0" /></g></g></g></g><g
       id="g542"
       transform="translate(-40.740001,-190.86)"><g
         id="g544"
         clip-path="url(#clipPath548)"><g
           id="g550"
           transform="translate(193.966,348.8159)"><path
             d="m 0,0 c -1.291,-0.187 -2.576,-0.387 -3.855,-0.598 10.474,-6.601 22.484,-15.278 34.512,-26.317 14.852,0.522 29.284,-0.716 42.951,-3.524 -0.282,2.534 -0.643,5.043 -1.092,7.523 -6.126,8.827 -13.5,16.72 -21.869,23.425 C 34.455,2.582 17.401,2.519 0,0 Z"
             style="fill:none;stroke:#ffffff;stroke-width:3;stroke-linecap:butt;stroke-linejoin:miter;stroke-miterlimit:10;stroke-dasharray:none;stroke-opacity:1"
             id="path552"
             inkscape:connector-curvature="0" /></g></g></g><g
       id="g554"
       transform="translate(-40.740001,-190.86)"><g
         id="g556"
         clip-path="url(#clipPath560)"><g
           id="g562"><g
             id="g564"><path
               d="m 86.786,291.904 c -1.677,-7.665 -2.567,-15.623 -2.567,-23.789 v 0 c 0,-6.718 0.598,-13.296 1.742,-19.684 v 0 c 8.228,13.164 19.157,25.22 32.244,35.604 v 0 c -1.476,12.76 -1.759,24.8 -1.517,34.968 v 0 C 105.242,311.072 95.176,301.935 86.786,291.904"
               style="fill:url(#linearGradient572);stroke:none"
               id="path574"
               inkscape:connector-curvature="0" /></g></g></g></g><g
       id="g576"
       transform="translate(-40.740001,-190.86)"><g
         id="g578"
         clip-path="url(#clipPath582)"><g
           id="g584"
           transform="translate(118.2053,284.0342)"><path
             d="M 0,0 C -1.477,12.761 -1.76,24.801 -1.518,34.969 -12.964,27.038 -23.029,17.9 -31.419,7.87 c -1.677,-7.665 -2.567,-15.623 -2.567,-23.79 0,-6.718 0.597,-13.296 1.742,-19.684 C -24.017,-22.439 -13.087,-10.383 0,0 Z"
             style="fill:none;stroke:#ffffff;stroke-width:3;stroke-linecap:butt;stroke-linejoin:miter;stroke-miterlimit:10;stroke-dasharray:none;stroke-opacity:1"
             id="path586"
             inkscape:connector-curvature="0" /></g></g></g><g
       id="g588"
       transform="translate(-40.740001,-190.86)"><g
         id="g590"
         clip-path="url(#clipPath594)"><g
           id="g596"><g
             id="g598"><path
               d="m 76.585,230.124 c 6.877,-7.321 14.731,-13.712 23.364,-18.954 v 0 c -6.764,11.274 -11.584,23.848 -13.988,37.261 v 0 c -3.686,-5.898 -6.822,-12.018 -9.376,-18.307"
               style="fill:url(#linearGradient606);stroke:none"
               id="path608"
               inkscape:connector-curvature="0" /></g></g></g></g><g
       id="g610"
       transform="translate(-40.740001,-190.86)"><g
         id="g612"
         clip-path="url(#clipPath616)"><g
           id="g618"
           transform="translate(76.5842,230.124)"><path
             d="M 0,0 C 6.877,-7.321 14.731,-13.712 23.364,-18.954 16.601,-7.68 11.78,4.894 9.377,18.307 5.691,12.409 2.555,6.289 0,0 Z"
             style="fill:none;stroke:#ffffff;stroke-width:3;stroke-linecap:butt;stroke-linejoin:miter;stroke-miterlimit:10;stroke-dasharray:none;stroke-opacity:1"
             id="path620"
             inkscape:connector-curvature="0" /></g></g></g><g
       id="g622"
       transform="translate(-40.740001,-190.86)"><g
         id="g624"
         clip-path="url(#clipPath628)"><g
           id="g630"><g
             id="g632"><path
               d="m 224.623,321.901 c 12.295,-11.284 24.604,-25.031 35.298,-41.534 v 0 c 1.756,-0.142 3.499,-0.318 5.236,-0.508 v 0 c 2.027,8.382 3.109,17.135 3.109,26.141 v 0 c 0,4.185 -0.241,8.312 -0.692,12.377 v 0 c -11.624,2.388 -23.802,3.641 -36.321,3.641 v 0 c -2.2,0 -4.41,-0.039 -6.63,-0.117"
               style="fill:url(#linearGradient640);stroke:none"
               id="path642"
               inkscape:connector-curvature="0" /></g></g></g></g><g
       id="g644"
       transform="translate(-40.740001,-190.86)"><g
         id="g646"
         clip-path="url(#clipPath650)"><g
           id="g652"
           transform="translate(259.9211,280.3672)"><path
             d="m 0,0 c 1.756,-0.143 3.499,-0.317 5.236,-0.509 2.027,8.383 3.109,17.136 3.109,26.142 0,4.184 -0.241,8.312 -0.692,12.376 -13.667,2.809 -28.099,4.047 -42.951,3.525 C -23.003,30.25 -10.694,16.503 0,0 Z"
             style="fill:none;stroke:#ffffff;stroke-width:3;stroke-linecap:butt;stroke-linejoin:miter;stroke-miterlimit:10;stroke-dasharray:none;stroke-opacity:1"
             id="path654"
             inkscape:connector-curvature="0" /></g></g></g><g
       id="g656"
       transform="translate(-40.740001,-190.86)"><g
         id="g658"
         clip-path="url(#clipPath662)"><g
           id="g664"><g
             id="g666"><path
               d="m 85.961,248.431 c 2.404,-13.413 7.224,-25.987 13.988,-37.261 v 0 c 0.533,-0.324 1.074,-0.639 1.616,-0.955 v 0 c 7.236,10.92 16.351,21.03 27.022,29.995 v 0 c -5.582,14.416 -8.731,29.562 -10.382,43.825 v 0 C 105.118,273.651 94.189,261.595 85.961,248.431"
               style="fill:url(#linearGradient674);stroke:none"
               id="path676"
               inkscape:connector-curvature="0" /></g></g></g></g><g
       id="g678"
       transform="translate(-40.740001,-190.86)"><g
         id="g680"
         clip-path="url(#clipPath684)"><g
           id="g686"
           transform="translate(128.5871,240.21)"><path
             d="M 0,0 C -5.582,14.416 -8.731,29.562 -10.382,43.824 -23.469,33.441 -34.398,21.385 -42.626,8.221 c 2.403,-13.413 7.224,-25.987 13.987,-37.261 0.535,-0.324 1.076,-0.64 1.617,-0.955 C -19.786,-19.074 -10.671,-8.965 0,0 Z"
             style="fill:none;stroke:#ffffff;stroke-width:3;stroke-linecap:butt;stroke-linejoin:miter;stroke-miterlimit:10;stroke-dasharray:none;stroke-opacity:1"
             id="path688"
             inkscape:connector-curvature="0" /></g></g></g><g
       id="g690"
       transform="translate(-40.740001,-190.86)"><g
         id="g692"
         clip-path="url(#clipPath696)"><g
           id="g698"><g
             id="g700"><path
               d="m 118.205,284.035 c 1.651,-14.263 4.8,-29.409 10.382,-43.825 v 0 c 14.69,12.342 32.329,22.508 52.096,29.605 v 0 c -5.657,15.143 -11.669,28.413 -17.419,39.706 v 0 c -16.816,-6.445 -32.009,-15.134 -45.059,-25.486"
               style="fill:url(#linearGradient708);stroke:none"
               id="path710"
               inkscape:connector-curvature="0" /></g></g></g></g><g
       id="g712"
       transform="translate(-40.740001,-190.86)"><g
         id="g714"
         clip-path="url(#clipPath718)"><g
           id="g720"
           transform="translate(163.2639,309.521)"><path
             d="m 0,0 c -16.815,-6.445 -32.009,-15.133 -45.059,-25.487 1.651,-14.262 4.8,-29.408 10.382,-43.824 14.691,12.342 32.329,22.508 52.096,29.605 C 11.762,-24.563 5.75,-11.292 0,0 Z"
             style="fill:none;stroke:#ffffff;stroke-width:3;stroke-linecap:butt;stroke-linejoin:miter;stroke-miterlimit:10;stroke-dasharray:none;stroke-opacity:1"
             id="path722"
             inkscape:connector-curvature="0" /></g></g></g><g
       id="g724"
       transform="translate(-40.740001,-190.86)"><g
         id="g726"
         clip-path="url(#clipPath730)"><g
           id="g732"><g
             id="g734"><path
               d="m 203.832,320.038 c -14.29,-2.068 -27.887,-5.657 -40.568,-10.517 v 0 c 5.75,-11.293 11.762,-24.563 17.419,-39.706 v 0 c 11.63,4.176 23.991,7.294 36.921,9.166 v 0 c 14.442,2.092 28.647,2.494 42.317,1.386 v 0 c -10.694,16.503 -23.003,30.25 -35.298,41.534 v 0 c -6.853,-0.241 -13.793,-0.849 -20.791,-1.863"
               style="fill:url(#linearGradient742);stroke:none"
               id="path744"
               inkscape:connector-curvature="0" /></g></g></g></g><g
       id="g746"
       transform="translate(-40.740001,-190.86)"><g
         id="g748"
         clip-path="url(#clipPath752)"><g
           id="g754"
           transform="translate(163.2639,309.521)"><path
             d="m 0,0 c 5.75,-11.292 11.762,-24.563 17.419,-39.706 11.63,4.176 23.991,7.294 36.921,9.166 14.442,2.091 28.647,2.494 42.317,1.386 C 85.963,-12.651 73.654,1.096 61.359,12.38 54.507,12.139 47.566,11.531 40.568,10.518 26.278,8.449 12.681,4.86 0,0 Z"
             style="fill:none;stroke:#ffffff;stroke-width:3;stroke-linecap:butt;stroke-linejoin:miter;stroke-miterlimit:10;stroke-dasharray:none;stroke-opacity:1"
             id="path756"
             inkscape:connector-curvature="0" /></g></g></g><g
       id="g758"
       transform="translate(-40.740001,-190.86)"><g
         id="g760"
         clip-path="url(#clipPath764)"><g
           id="g766"><g
             id="g768"><path
               d="m 217.604,278.981 c -12.93,-1.872 -25.291,-4.99 -36.921,-9.166 v 0 c 4.599,-12.312 8.96,-25.862 12.751,-40.581 v 0 c 11.867,4.325 24.504,7.544 37.736,9.46 v 0 c 5.214,0.755 10.397,1.289 15.536,1.612 v 0 c 7.487,10.162 13.28,21.646 16.966,34.038 v 0 c -1.227,2.047 -2.477,4.056 -3.751,6.023 v 0 c -4.909,0.398 -9.889,0.601 -14.922,0.601 v 0 c -8.983,0 -18.14,-0.646 -27.395,-1.987"
               style="fill:url(#linearGradient776);stroke:none"
               id="path778"
               inkscape:connector-curvature="0" /></g></g></g></g><g
       id="g780"
       transform="translate(-40.740001,-190.86)"><g
         id="g782"
         clip-path="url(#clipPath786)"><g
           id="g788"
           transform="translate(217.6037,278.9814)"><path
             d="m 0,0 c -12.93,-1.872 -25.291,-4.99 -36.921,-9.166 4.6,-12.313 8.96,-25.862 12.752,-40.581 11.866,4.324 24.503,7.544 37.735,9.46 5.214,0.755 10.398,1.289 15.537,1.612 7.487,10.161 13.279,21.646 16.965,34.038 -1.226,2.046 -2.476,4.055 -3.751,6.023 C 28.647,2.493 14.442,2.091 0,0 Z"
             style="fill:none;stroke:#ffffff;stroke-width:3;stroke-linecap:butt;stroke-linejoin:miter;stroke-miterlimit:10;stroke-dasharray:none;stroke-opacity:1"
             id="path790"
             inkscape:connector-curvature="0" /></g></g></g><g
       id="g792"
       transform="translate(-40.740001,-190.86)"><g
         id="g794"
         clip-path="url(#clipPath798)"><g
           id="g800"><g
             id="g802"><path
               d="m 263.672,274.344 c 0.541,1.819 1.036,3.657 1.485,5.515 v 0 c -1.737,0.19 -3.48,0.366 -5.236,0.508 v 0 c 1.274,-1.967 2.524,-3.976 3.751,-6.023"
               style="fill:url(#linearGradient810);stroke:none"
               id="path812"
               inkscape:connector-curvature="0" /></g></g></g></g><g
       id="g814"
       transform="translate(-40.740001,-190.86)"><g
         id="g816"
         clip-path="url(#clipPath820)"><g
           id="g822"
           transform="translate(263.6721,274.3447)"><path
             d="M 0,0 C 0.541,1.818 1.036,3.656 1.485,5.514 -0.252,5.705 -1.995,5.88 -3.751,6.022 -2.477,4.055 -1.227,2.046 0,0 Z"
             style="fill:none;stroke:#ffffff;stroke-width:3;stroke-linecap:butt;stroke-linejoin:miter;stroke-miterlimit:10;stroke-dasharray:none;stroke-opacity:1"
             id="path824"
             inkscape:connector-curvature="0" /></g></g></g><g
       id="g826"
       transform="translate(-40.740001,-190.86)"><g
         id="g828"
         clip-path="url(#clipPath832)"><g
           id="g834"><g
             id="g836"><path
               d="m 101.565,210.215 c 11.205,-6.547 23.661,-11.183 36.923,-13.463 v 0 c 3.391,3.036 6.954,5.952 10.678,8.736 v 0 c -9.094,10.319 -15.747,22.243 -20.579,34.722 v 0 c -10.671,-8.965 -19.786,-19.075 -27.022,-29.995"
               style="fill:url(#linearGradient844);stroke:none"
               id="path846"
               inkscape:connector-curvature="0" /></g></g></g></g><g
       id="g848"
       transform="translate(-40.740001,-190.86)"><g
         id="g850"
         clip-path="url(#clipPath854)"><g
           id="g856"
           transform="translate(128.5871,240.21)"><path
             d="m 0,0 c -10.671,-8.965 -19.786,-19.074 -27.022,-29.995 11.205,-6.547 23.661,-11.183 36.923,-13.463 3.391,3.036 6.953,5.952 10.678,8.736 C 11.484,-24.403 4.832,-12.479 0,0 Z"
             style="fill:none;stroke:#ffffff;stroke-width:3;stroke-linecap:butt;stroke-linejoin:miter;stroke-miterlimit:10;stroke-dasharray:none;stroke-opacity:1"
             id="path858"
             inkscape:connector-curvature="0" /></g></g></g><g
       id="g860"
       transform="translate(-40.740001,-190.86)"><g
         id="g862"
         clip-path="url(#clipPath866)"><g
           id="g868"><g
             id="g870"><path
               d="m 128.587,240.21 c 4.832,-12.479 11.485,-24.403 20.579,-34.722 v 0 c 12.961,9.688 27.878,17.772 44.268,23.746 v 0 c -3.791,14.719 -8.152,28.269 -12.751,40.581 v 0 c -19.767,-7.097 -37.406,-17.263 -52.096,-29.605"
               style="fill:url(#linearGradient878);stroke:none"
               id="path880"
               inkscape:connector-curvature="0" /></g></g></g></g><g
       id="g882"
       transform="translate(-40.740001,-190.86)"><g
         id="g884"
         clip-path="url(#clipPath888)"><g
           id="g890"
           transform="translate(193.4348,229.2344)"><path
             d="M 0,0 C -3.792,14.719 -8.152,28.269 -12.752,40.581 -32.519,33.483 -50.157,23.317 -64.848,10.976 -60.016,-1.503 -53.363,-13.428 -44.269,-23.746 -31.308,-14.059 -16.392,-5.974 0,0 Z"
             style="fill:none;stroke:#ffffff;stroke-width:3;stroke-linecap:butt;stroke-linejoin:miter;stroke-miterlimit:10;stroke-dasharray:none;stroke-opacity:1"
             id="path892"
             inkscape:connector-curvature="0" /></g></g></g><g
       id="g894"
       transform="translate(-40.740001,-190.86)"><g
         id="g896"
         clip-path="url(#clipPath900)"><g
           id="g902"><g
             id="g904"><path
               d="m 138.488,196.752 c 6.148,-1.057 12.466,-1.613 18.916,-1.613 v 0 c 0.794,0 1.586,0.013 2.377,0.029 v 0 c -3.863,3.207 -7.391,6.662 -10.615,10.32 v 0 c -3.724,-2.784 -7.287,-5.7 -10.678,-8.736"
               style="fill:url(#linearGradient912);stroke:none"
               id="path914"
               inkscape:connector-curvature="0" /></g></g></g></g><g
       id="g916"
       transform="translate(-40.740001,-190.86)"><g
         id="g918"
         clip-path="url(#clipPath922)"><g
           id="g924"
           transform="translate(159.7814,195.168)"><path
             d="M 0,0 C -3.863,3.207 -7.392,6.662 -10.615,10.32 -14.34,7.536 -17.902,4.62 -21.293,1.584 -15.146,0.527 -8.827,-0.029 -2.378,-0.029 -1.583,-0.029 -0.791,-0.017 0,0 Z"
             style="fill:none;stroke:#ffffff;stroke-width:3;stroke-linecap:butt;stroke-linejoin:miter;stroke-miterlimit:10;stroke-dasharray:none;stroke-opacity:1"
             id="path926"
             inkscape:connector-curvature="0" /></g></g></g><g
       id="g928"
       transform="translate(-40.740001,-190.86)"><g
         id="g930"
         clip-path="url(#clipPath934)"><g
           id="g936"><g
             id="g938"><path
               d="m 149.166,205.488 c 3.224,-3.658 6.752,-7.113 10.615,-10.32 v 0 c 13.935,0.294 27.235,3.16 39.449,8.14 v 0 c -1.712,9.006 -3.664,17.651 -5.796,25.926 v 0 c -16.39,-5.974 -31.307,-14.058 -44.268,-23.746"
               style="fill:url(#linearGradient946);stroke:none"
               id="path948"
               inkscape:connector-curvature="0" /></g></g></g></g><g
       id="g950"
       transform="translate(-40.740001,-190.86)"><g
         id="g952"
         clip-path="url(#clipPath956)"><g
           id="g958"
           transform="translate(149.1662,205.4883)"><path
             d="M 0,0 C 3.224,-3.658 6.752,-7.113 10.615,-10.32 24.55,-10.026 37.85,-7.16 50.064,-2.18 48.353,6.826 46.4,15.471 44.269,23.746 27.877,17.772 12.961,9.688 0,0 Z"
             style="fill:none;stroke:#ffffff;stroke-width:3;stroke-linecap:butt;stroke-linejoin:miter;stroke-miterlimit:10;stroke-dasharray:none;stroke-opacity:1"
             id="path960"
             inkscape:connector-curvature="0" /></g></g></g><g
       id="g962"
       transform="translate(-40.740001,-190.86)"><g
         id="g964"
         clip-path="url(#clipPath968)"><g
           id="g970"><g
             id="g972"><path
               d="m 231.17,238.694 c -13.232,-1.916 -25.869,-5.135 -37.736,-9.46 v 0 c 2.132,-8.275 4.084,-16.92 5.796,-25.926 v 0 c 19.045,7.766 35.445,20.671 47.476,36.998 v 0 c -5.139,-0.323 -10.322,-0.857 -15.536,-1.612"
               style="fill:url(#linearGradient980);stroke:none"
               id="path982"
               inkscape:connector-curvature="0" /></g></g></g></g><g
       id="g984"
       transform="translate(-40.740001,-190.86)"><g
         id="g986"
         clip-path="url(#clipPath990)"><g
           id="g992"
           transform="translate(193.4348,229.2344)"><path
             d="M 0,0 C 2.132,-8.275 4.084,-16.92 5.796,-25.926 24.841,-18.16 41.24,-5.255 53.271,11.072 48.133,10.749 42.949,10.215 37.735,9.46 24.503,7.544 11.866,4.324 0,0 Z"
             style="fill:none;stroke:#ffffff;stroke-width:3;stroke-linecap:butt;stroke-linejoin:miter;stroke-miterlimit:10;stroke-dasharray:none;stroke-opacity:1"
             id="path994"
             inkscape:connector-curvature="0" /></g></g></g><g
       id="g996"
       transform="translate(-40.740001,-190.86)"><g
         id="g998"
         clip-path="url(#clipPath1002)"><g
           id="g1004"><g
             id="g1006"><path
               d="m 222.177,289.796 c 18.212,-52.145 -3.488,-63.604 -9.621,-69.476 v 0 c -10.848,-10.383 -25.622,-14.832 -34.667,-17.012 v 0 c -19.866,-4.787 -45.925,-1.9 -66.598,5.912 v 0 c -12.916,4.882 -23.241,11.824 -29.17,16.346 v 0 c 37.342,-30.073 55.415,-30.428 82.305,-30.428 v 0 c 28.186,0 60.711,19.047 78.573,40.416 v 0 c 17.863,21.371 25.525,41.497 24.575,82.823 v 0 c -0.949,41.324 -43.943,76.537 -43.943,76.537 v 0 C 239.172,371.561 203.082,344.47 222.177,289.796 M 82.121,225.566 c -1.799,1.448 -3.645,2.968 -5.536,4.558 v 0 c 0,0 1.975,-1.843 5.536,-4.558"
               style="fill:url(#linearGradient1014);stroke:none"
               id="path1016"
               inkscape:connector-curvature="0" /></g></g></g></g><g
       id="g1018"
       transform="translate(-40.740001,-190.86)"><g
         id="g1020"
         clip-path="url(#clipPath1024)"><g
           id="g1026"
           transform="translate(76.5842,230.124)"><path
             d="m 0,0 c 0,0 14.035,-13.091 34.707,-20.903 20.673,-7.813 46.731,-10.7 66.599,-5.912 9.044,2.179 23.818,6.628 34.666,17.011 6.133,5.871 27.833,17.331 9.621,69.476 -19.095,54.674 16.995,81.765 1.454,105.118 0,0 42.994,-35.213 43.943,-76.538 C 191.939,46.928 184.278,26.801 166.415,5.431 148.553,-15.939 116.027,-34.986 87.842,-34.986 59.657,-34.986 41.155,-34.595 0,0 Z"
             style="fill:none;stroke:#ffffff;stroke-width:3;stroke-linecap:butt;stroke-linejoin:miter;stroke-miterlimit:10;stroke-dasharray:none;stroke-opacity:1"
             id="path1028"
             inkscape:connector-curvature="0" /></g><g
           id="g1030"
           transform="translate(241.1105,266.917)"><path
             d="m 0,0 c 1.349,8.063 2.226,16.107 2.757,24.164 0.283,4.025 0.399,8.054 0.553,12.072 l 0.026,6.035 C 3.37,44.28 3.251,46.29 3.228,48.298 l -0.06,3.013 -0.183,3.006 C 2.867,56.322 2.807,58.331 2.642,60.332 2.257,64.329 2.045,68.349 1.489,72.334 l -0.313,3.007 c -0.102,1.003 -0.197,2.009 -0.377,3 -0.325,1.987 -0.57,3.995 -0.86,6 -0.166,0.997 -0.222,2.021 -0.428,3.012 l -0.532,2.995 c -0.324,2.01 -0.654,4.025 -0.908,6.072 l 0.12,0.037 C 1.462,88.944 3.971,81.044 5.483,72.95 6.357,68.918 6.812,64.821 7.295,60.727 7.534,58.679 7.579,56.616 7.729,54.562 l 0.163,-3.087 0.032,-3.09 C 7.915,46.325 7.968,44.265 7.886,42.207 L 7.566,36.04 C 7.401,33.988 7.211,31.939 7.009,29.894 6.801,27.848 6.45,25.816 6.178,23.781 4.896,15.672 3.05,7.613 0,0"
             style="fill:#ffffff;fill-opacity:1;fill-rule:nonzero;stroke:none"
             id="path1032"
             inkscape:connector-curvature="0" /></g><g
           id="g1034"
           transform="translate(268.2658,306)"><path
             d="m 0,0 c 0,-61.228 -49.635,-110.862 -110.862,-110.862 -61.227,0 -110.862,49.634 -110.862,110.862 0,61.228 49.635,110.862 110.862,110.862 C -49.635,110.862 0,61.228 0,0 Z"
             style="fill:none;stroke:#ffffff;stroke-width:4;stroke-linecap:butt;stroke-linejoin:miter;stroke-miterlimit:10;stroke-dasharray:none;stroke-opacity:1"
             id="path1036"
             inkscape:connector-curvature="0" /></g><g
           id="g1038"
           transform="translate(302.4894,396.063)"><path
             d="m 0,0 h 2.169 c 2.539,0 4.965,-0.241 7.278,-0.723 2.443,-0.514 4.708,-1.221 6.797,-2.121 2.153,-0.932 4.242,-2.073 6.267,-3.422 0.407,-0.276 0.846,-0.589 1.319,-0.938 0.995,-0.733 1.106,-2.186 0.234,-3.063 L 20.09,-14.27 c -0.694,-0.699 -1.793,-0.798 -2.598,-0.228 -1.58,1.118 -3.264,2.062 -5.055,2.833 -3.118,1.318 -6.508,1.977 -10.171,1.977 -3.76,0 -7.166,-0.659 -10.219,-1.977 -3.117,-1.285 -5.993,-3.246 -8.629,-5.88 -2.603,-2.668 -4.547,-5.544 -5.832,-8.629 -1.317,-3.245 -1.977,-6.652 -1.977,-10.219 0,-3.599 0.66,-7.005 1.977,-10.219 1.285,-3.117 3.229,-5.993 5.832,-8.628 2.603,-2.635 5.479,-4.595 8.629,-5.881 3.213,-1.317 6.619,-1.976 10.219,-1.976 2.828,0 5.575,0.434 8.242,1.302 2.507,0.771 4.933,2.008 7.279,3.711 1.896,1.414 3.534,2.973 4.916,4.676 1.446,1.735 2.651,3.615 3.615,5.639 l 2.025,4.29 H 23.571 5.877 c -0.797,0 -1.442,0.646 -1.442,1.443 v 7.475 h 0.819 33.163 c 0.129,-5.077 -0.562,-9.785 -2.072,-14.124 -1.736,-5.109 -4.564,-9.592 -8.484,-13.448 -3.632,-3.567 -7.568,-6.234 -11.809,-8.002 -4.21,-1.767 -8.854,-2.651 -13.931,-2.651 -5.109,0 -9.753,0.884 -13.931,2.651 -4.305,1.768 -8.226,4.435 -11.761,8.002 -3.663,3.632 -6.33,7.552 -8.001,11.761 -1.768,4.242 -2.652,8.902 -2.652,13.979 0,5.045 0.884,9.705 2.652,13.979 1.671,4.178 4.338,8.114 8.001,11.81 3.503,3.566 7.424,6.25 11.761,8.049 3.536,1.511 7.456,2.394 11.762,2.652 z"
             style="fill:#00a650;fill-opacity:1;fill-rule:nonzero;stroke:none"
             id="path1040"
             inkscape:connector-curvature="0" /></g><g
           id="g1042"
           transform="translate(302.4894,396.063)"><path
             d="m 0,0 h 2.169 c 2.539,0 4.965,-0.241 7.278,-0.723 2.443,-0.514 4.708,-1.221 6.797,-2.121 2.153,-0.932 4.242,-2.073 6.267,-3.422 0.407,-0.276 0.846,-0.589 1.319,-0.938 0.995,-0.733 1.106,-2.186 0.234,-3.063 L 20.09,-14.27 c -0.694,-0.699 -1.793,-0.798 -2.598,-0.228 -1.58,1.118 -3.264,2.062 -5.055,2.833 -3.118,1.318 -6.508,1.977 -10.171,1.977 -3.76,0 -7.166,-0.659 -10.219,-1.977 -3.117,-1.285 -5.993,-3.246 -8.629,-5.88 -2.603,-2.668 -4.547,-5.544 -5.832,-8.629 -1.317,-3.245 -1.977,-6.652 -1.977,-10.219 0,-3.599 0.66,-7.005 1.977,-10.219 1.285,-3.117 3.229,-5.993 5.832,-8.628 2.603,-2.635 5.479,-4.595 8.629,-5.881 3.213,-1.317 6.619,-1.976 10.219,-1.976 2.828,0 5.575,0.434 8.242,1.302 2.507,0.771 4.933,2.008 7.279,3.711 1.896,1.414 3.534,2.973 4.916,4.676 1.446,1.735 2.651,3.615 3.615,5.639 l 2.025,4.29 H 23.571 5.877 c -0.797,0 -1.442,0.646 -1.442,1.443 v 7.475 h 0.819 33.163 c 0.129,-5.077 -0.562,-9.785 -2.072,-14.124 -1.736,-5.109 -4.564,-9.592 -8.484,-13.448 -3.632,-3.567 -7.568,-6.234 -11.809,-8.002 -4.21,-1.767 -8.854,-2.651 -13.931,-2.651 -5.109,0 -9.753,0.884 -13.931,2.651 -4.305,1.768 -8.226,4.435 -11.761,8.002 -3.663,3.632 -6.33,7.552 -8.001,11.761 -1.768,4.242 -2.652,8.902 -2.652,13.979 0,5.045 0.884,9.705 2.652,13.979 1.671,4.178 4.338,8.114 8.001,11.81 3.503,3.566 7.424,6.25 11.761,8.049 3.536,1.511 7.456,2.394 11.762,2.652 z"
             style="fill:none;stroke:#00a650;stroke-width:8;stroke-linecap:butt;stroke-linejoin:miter;stroke-miterlimit:10;stroke-dasharray:none;stroke-opacity:1"
             id="path1044"
             inkscape:connector-curvature="0" /></g><g
           id="g1046"
           transform="translate(400.3947,358.6099)"><path
             d="m 0,0 0.049,-0.048 c 1.96,0 3.68,0.321 5.157,0.964 1.317,0.61 2.684,1.623 4.098,3.037 1.446,1.445 2.474,2.988 3.085,4.627 0.61,1.478 0.916,3.262 0.916,5.35 0,1.896 -0.306,3.632 -0.916,5.206 -0.578,1.35 -1.591,2.796 -3.037,4.339 v 0.048 c -1.318,1.285 -3.053,2.281 -5.206,2.988 -2.025,0.675 -4.209,1.012 -6.555,1.012 h -8.774 -2.988 V 24.487 3.037 0.048 h 2.988 L -7.567,0 h 2.41 z m -23.812,36.971 h 22.367 c 3.566,0 6.94,-0.626 10.122,-1.88 3.02,-1.189 5.719,-2.908 8.098,-5.157 2.442,-2.475 4.145,-4.837 5.11,-7.086 1.028,-2.346 1.542,-5.158 1.542,-8.435 V 12.388 C 23.427,9.914 23.058,7.632 22.318,5.543 21.611,3.551 20.519,1.478 19.04,-0.675 17.787,-2.41 16.599,-3.68 15.474,-4.483 14.413,-5.286 12.935,-6.058 11.039,-6.797 l -3.374,-1.349 1.976,-3.085 13.248,-20.548 c 0.814,-1.263 -0.092,-2.927 -1.595,-2.927 h -7.442 c -0.642,0 -1.241,0.325 -1.591,0.863 l -15.78,24.251 h -10.604 v -25.114 h -9.641 z"
             style="fill:#00a650;fill-opacity:1;fill-rule:nonzero;stroke:none"
             id="path1048"
             inkscape:connector-curvature="0" /></g><g
           id="g1050"
           transform="translate(400.3947,358.6099)"><path
             d="m 0,0 0.049,-0.048 c 1.96,0 3.68,0.321 5.157,0.964 1.317,0.61 2.684,1.623 4.098,3.037 1.446,1.445 2.474,2.988 3.085,4.627 0.61,1.478 0.916,3.262 0.916,5.35 0,1.896 -0.306,3.632 -0.916,5.206 -0.578,1.35 -1.591,2.796 -3.037,4.339 v 0.048 c -1.318,1.285 -3.053,2.281 -5.206,2.988 -2.025,0.675 -4.209,1.012 -6.555,1.012 h -8.774 -2.988 V 24.487 3.037 0.048 h 2.988 L -7.567,0 h 2.41 z m -23.812,36.971 h 22.367 c 3.566,0 6.94,-0.626 10.122,-1.88 3.02,-1.189 5.719,-2.908 8.098,-5.157 2.442,-2.475 4.145,-4.837 5.11,-7.086 1.028,-2.346 1.542,-5.158 1.542,-8.435 V 12.388 C 23.427,9.914 23.058,7.632 22.318,5.543 21.611,3.551 20.519,1.478 19.04,-0.675 17.787,-2.41 16.599,-3.68 15.474,-4.483 14.413,-5.286 12.935,-6.058 11.039,-6.797 l -3.374,-1.349 1.976,-3.085 13.248,-20.548 c 0.814,-1.263 -0.092,-2.927 -1.595,-2.927 h -7.442 c -0.642,0 -1.241,0.325 -1.591,0.863 l -15.78,24.251 h -10.604 v -25.114 h -9.641 z"
             style="fill:none;stroke:#00a650;stroke-width:8;stroke-linecap:butt;stroke-linejoin:miter;stroke-miterlimit:10;stroke-dasharray:none;stroke-opacity:1"
             id="path1052"
             inkscape:connector-curvature="0" /></g><g
           id="g1054"
           transform="translate(652.4211,256.0479)"><path
             d="m 0,0 0.046,-0.046 c 1.861,0 3.495,0.305 4.898,0.915 1.251,0.58 2.549,1.542 3.892,2.885 1.374,1.373 2.351,2.838 2.931,4.395 0.579,1.404 0.87,3.098 0.87,5.081 0,1.801 -0.291,3.45 -0.87,4.946 -0.55,1.281 -1.512,2.655 -2.885,4.12 v 0.046 c -1.251,1.22 -2.9,2.167 -4.945,2.838 -1.923,0.641 -3.998,0.962 -6.226,0.962 h -8.333 -2.838 V 23.258 2.884 0.046 h 2.838 L -7.187,0 h 2.289 z m -22.616,35.115 h 21.243 c 3.387,0 6.592,-0.595 9.613,-1.786 2.869,-1.129 5.433,-2.762 7.693,-4.898 2.319,-2.35 3.936,-4.594 4.852,-6.731 0.978,-2.227 1.465,-4.898 1.465,-8.012 v -1.922 c 0,-2.35 -0.351,-4.518 -1.053,-6.501 -0.671,-1.893 -1.709,-3.862 -3.113,-5.907 -1.19,-1.647 -2.319,-2.853 -3.388,-3.616 -1.007,-0.763 -2.411,-1.496 -4.212,-2.198 l -3.205,-1.281 1.877,-2.931 12.583,-19.516 c 0.774,-1.2 -0.088,-2.78 -1.514,-2.78 h -7.069 c -0.61,0 -1.178,0.309 -1.511,0.819 L -3.343,-9.111 h -10.071 v -23.853 h -9.157 z"
             style="fill:#2775c4;fill-opacity:1;fill-rule:nonzero;stroke:none"
             id="path1056"
             inkscape:connector-curvature="0" /></g><g
           id="g1058"
           transform="translate(652.4211,256.0479)"><path
             d="m 0,0 0.046,-0.046 c 1.861,0 3.495,0.305 4.898,0.915 1.251,0.58 2.549,1.542 3.892,2.885 1.374,1.373 2.351,2.838 2.931,4.395 0.579,1.404 0.87,3.098 0.87,5.081 0,1.801 -0.291,3.45 -0.87,4.946 -0.55,1.281 -1.512,2.655 -2.885,4.12 v 0.046 c -1.251,1.22 -2.9,2.167 -4.945,2.838 -1.923,0.641 -3.998,0.962 -6.226,0.962 h -8.333 -2.838 V 23.258 2.884 0.046 h 2.838 L -7.187,0 h 2.289 z m -22.616,35.115 h 21.243 c 3.387,0 6.592,-0.595 9.613,-1.786 2.869,-1.129 5.433,-2.762 7.693,-4.898 2.319,-2.35 3.936,-4.594 4.852,-6.731 0.978,-2.227 1.465,-4.898 1.465,-8.012 v -1.922 c 0,-2.35 -0.351,-4.518 -1.053,-6.501 -0.671,-1.893 -1.709,-3.862 -3.113,-5.907 -1.19,-1.647 -2.319,-2.853 -3.388,-3.616 -1.007,-0.763 -2.411,-1.496 -4.212,-2.198 l -3.205,-1.281 1.877,-2.931 12.583,-19.516 c 0.774,-1.2 -0.088,-2.78 -1.514,-2.78 h -7.069 c -0.61,0 -1.178,0.309 -1.511,0.819 L -3.343,-9.111 h -10.071 v -23.853 h -9.157 z"
             style="fill:none;stroke:#2775c4;stroke-width:10;stroke-linecap:butt;stroke-linejoin:miter;stroke-miterlimit:10;stroke-dasharray:none;stroke-opacity:1"
             id="path1060"
             inkscape:connector-curvature="0" /></g><g
           id="g1062"
           transform="translate(578.0568,394.1167)"><path
             d="m 0,0 v -6.326 c 0,-0.889 -0.721,-1.609 -1.608,-1.609 h -26.59 -2.989 v -2.989 -15.665 -3.037 h 2.989 18.781 c 0.888,0 1.608,-0.721 1.608,-1.609 v -6.327 c 0,-0.888 -0.72,-1.608 -1.608,-1.608 h -18.781 -2.989 v -2.989 -15.666 -3.036 h 2.989 26.59 c 0.887,0 1.608,-0.721 1.608,-1.609 v -6.327 c 0,-0.889 -0.721,-1.609 -1.608,-1.609 h -26.59 -12.581 V 1.609 H -1.608 C -0.721,1.609 0,0.889 0,0"
             style="fill:#00a650;fill-opacity:1;fill-rule:nonzero;stroke:none"
             id="path1064"
             inkscape:connector-curvature="0" /></g><g
           id="g1066"
           transform="translate(578.0568,394.1167)"><path
             d="m 0,0 v -6.326 c 0,-0.889 -0.721,-1.609 -1.608,-1.609 h -26.59 -2.989 v -2.989 -15.665 -3.037 h 2.989 18.781 c 0.888,0 1.608,-0.721 1.608,-1.609 v -6.327 c 0,-0.888 -0.72,-1.608 -1.608,-1.608 h -18.781 -2.989 v -2.989 -15.666 -3.036 h 2.989 26.59 c 0.887,0 1.608,-0.721 1.608,-1.609 v -6.327 c 0,-0.889 -0.721,-1.609 -1.608,-1.609 h -26.59 -12.581 V 1.609 H -1.608 C -0.721,1.609 0,0.889 0,0 Z"
             style="fill:none;stroke:#00a650;stroke-width:8;stroke-linecap:butt;stroke-linejoin:miter;stroke-miterlimit:10;stroke-dasharray:none;stroke-opacity:1"
             id="path1068"
             inkscape:connector-curvature="0" /></g><g
           id="g1070"
           transform="translate(592.9113,288.1602)"><path
             d="m 0,0 v -5.808 c 0,-0.815 -0.661,-1.476 -1.478,-1.476 h -24.409 -2.744 v -2.744 -14.381 -2.788 h 2.744 17.241 c 0.816,0 1.477,-0.661 1.477,-1.477 v -5.807 c 0,-0.816 -0.661,-1.477 -1.477,-1.477 h -17.241 -2.744 v -2.743 -14.382 -2.787 h 2.744 24.409 c 0.817,0 1.478,-0.661 1.478,-1.478 v -5.807 c 0,-0.816 -0.661,-1.477 -1.478,-1.477 H -25.887 -37.436 V 1.478 H -1.478 C -0.661,1.478 0,0.815 0,0"
             style="fill:#2775c4;fill-opacity:1;fill-rule:nonzero;stroke:none"
             id="path1072"
             inkscape:connector-curvature="0" /></g><g
           id="g1074"
           transform="translate(592.9113,288.1602)"><path
             d="m 0,0 v -5.808 c 0,-0.815 -0.661,-1.476 -1.478,-1.476 h -24.409 -2.744 v -2.744 -14.381 -2.788 h 2.744 17.241 c 0.816,0 1.477,-0.661 1.477,-1.477 v -5.807 c 0,-0.816 -0.661,-1.477 -1.477,-1.477 h -17.241 -2.744 v -2.743 -14.382 -2.787 h 2.744 24.409 c 0.817,0 1.478,-0.661 1.478,-1.478 v -5.807 c 0,-0.816 -0.661,-1.477 -1.478,-1.477 H -25.887 -37.436 V 1.478 H -1.478 C -0.661,1.478 0,0.815 0,0 Z"
             style="fill:none;stroke:#2775c4;stroke-width:10;stroke-linecap:butt;stroke-linejoin:miter;stroke-miterlimit:10;stroke-dasharray:none;stroke-opacity:1"
             id="path1076"
             inkscape:connector-curvature="0" /></g><g
           id="g1078"
           transform="translate(498.2131,394.1167)"><path
             d="m 0,0 v -6.326 c 0,-0.889 -0.72,-1.609 -1.608,-1.609 h -26.59 -2.989 v -2.989 -15.665 -3.037 h 2.989 18.781 c 0.889,0 1.608,-0.721 1.608,-1.609 v -6.327 c 0,-0.888 -0.719,-1.608 -1.608,-1.608 h -18.781 -2.989 v -2.989 -15.666 -3.036 h 2.989 26.59 C -0.72,-60.861 0,-61.582 0,-62.47 v -6.327 c 0,-0.889 -0.72,-1.609 -1.608,-1.609 h -26.59 -12.581 V 1.609 H -1.608 C -0.72,1.609 0,0.889 0,0"
             style="fill:#00a650;fill-opacity:1;fill-rule:nonzero;stroke:none"
             id="path1080"
             inkscape:connector-curvature="0" /></g><g
           id="g1082"
           transform="translate(498.2131,394.1167)"><path
             d="m 0,0 v -6.326 c 0,-0.889 -0.72,-1.609 -1.608,-1.609 h -26.59 -2.989 v -2.989 -15.665 -3.037 h 2.989 18.781 c 0.889,0 1.608,-0.721 1.608,-1.609 v -6.327 c 0,-0.888 -0.719,-1.608 -1.608,-1.608 h -18.781 -2.989 v -2.989 -15.666 -3.036 h 2.989 26.59 C -0.72,-60.861 0,-61.582 0,-62.47 v -6.327 c 0,-0.889 -0.72,-1.609 -1.608,-1.609 h -26.59 -12.581 V 1.609 H -1.608 C -0.72,1.609 0,0.889 0,0 Z"
             style="fill:none;stroke:#00a650;stroke-width:8;stroke-linecap:butt;stroke-linejoin:miter;stroke-miterlimit:10;stroke-dasharray:none;stroke-opacity:1"
             id="path1084"
             inkscape:connector-curvature="0" /></g><g
           id="g1086"
           transform="translate(660.5246,347.0894)"><path
             d="m 0,0 v 8.532 38.136 c 0,1.087 0.881,1.968 1.968,1.968 h 5.656 c 1.087,0 1.968,-0.881 1.968,-1.968 v -68.844 c 0,-0.828 -1.015,-1.23 -1.581,-0.625 l -45.224,48.204 v -5.495 -40.195 c 0,-1.707 -1.385,-3.091 -3.092,-3.091 h -3.408 c -1.708,0 -3.092,1.384 -3.092,3.091 v 68.424 c 0,0.389 0.475,0.579 0.743,0.297 z"
             style="fill:#00a650;fill-opacity:1;fill-rule:nonzero;stroke:none"
             id="path1088"
             inkscape:connector-curvature="0" /></g><g
           id="g1090"
           transform="translate(660.5246,347.0894)"><path
             d="m 0,0 v 8.532 38.136 c 0,1.087 0.881,1.968 1.968,1.968 h 5.656 c 1.087,0 1.968,-0.881 1.968,-1.968 v -68.844 c 0,-0.828 -1.015,-1.23 -1.581,-0.625 l -45.224,48.204 v -5.495 -40.195 c 0,-1.707 -1.385,-3.091 -3.092,-3.091 h -3.408 c -1.708,0 -3.092,1.384 -3.092,3.091 v 68.424 c 0,0.389 0.475,0.579 0.743,0.297 z"
             style="fill:none;stroke:#00a650;stroke-width:8;stroke-linecap:butt;stroke-linejoin:miter;stroke-miterlimit:10;stroke-dasharray:none;stroke-opacity:1"
             id="path1092"
             inkscape:connector-curvature="0" /></g><g
           id="g1094"
           transform="translate(286.2971,253.9277)"><path
             d="m 0,0 h 2.777 l 10.842,-0.045 c 1.911,0 3.658,0.329 5.241,0.986 1.553,0.627 3.032,1.628 4.436,3.001 1.284,1.345 2.269,2.823 2.956,4.436 0.687,1.523 1.03,3.27 1.03,5.241 0,1.912 -0.343,3.645 -1.03,5.197 -0.597,1.494 -1.583,2.972 -2.956,4.435 -1.315,1.345 -2.778,2.36 -4.391,3.047 -1.613,0.686 -3.375,1.03 -5.286,1.03 H 2.777 0 V 24.551 13.664 2.778 Z M -8.915,-11.603 V 13.664 36.153 H 2.777 13.619 c 3.136,0 6.018,-0.551 8.646,-1.657 2.598,-1.075 5.033,-2.732 7.302,-4.973 2.21,-2.18 3.883,-4.599 5.018,-7.257 1.075,-2.659 1.613,-5.54 1.613,-8.647 0,-3.136 -0.538,-6.017 -1.613,-8.646 -1.105,-2.598 -2.763,-5.002 -4.973,-7.212 -2.24,-2.211 -4.689,-3.868 -7.347,-4.974 -2.658,-1.075 -5.54,-1.612 -8.646,-1.612 H 2.777 0 v -2.778 -18.135 c 0,-0.402 -0.325,-0.726 -0.726,-0.726 H -8.19 c -0.401,0 -0.725,0.324 -0.725,0.726 z"
             style="fill:#2775c4;fill-opacity:1;fill-rule:nonzero;stroke:none"
             id="path1096"
             inkscape:connector-curvature="0" /></g><g
           id="g1098"
           transform="translate(286.2971,253.9277)"><path
             d="m 0,0 h 2.777 l 10.842,-0.045 c 1.911,0 3.658,0.329 5.241,0.986 1.553,0.627 3.032,1.628 4.436,3.001 1.284,1.345 2.269,2.823 2.956,4.436 0.687,1.523 1.03,3.27 1.03,5.241 0,1.912 -0.343,3.645 -1.03,5.197 -0.597,1.494 -1.583,2.972 -2.956,4.435 -1.315,1.345 -2.778,2.36 -4.391,3.047 -1.613,0.686 -3.375,1.03 -5.286,1.03 H 2.777 0 V 24.551 13.664 2.778 Z M -8.915,-11.603 V 13.664 36.153 H 2.777 13.619 c 3.136,0 6.018,-0.551 8.646,-1.657 2.598,-1.075 5.033,-2.732 7.302,-4.973 2.21,-2.18 3.883,-4.599 5.018,-7.257 1.075,-2.659 1.613,-5.54 1.613,-8.647 0,-3.136 -0.538,-6.017 -1.613,-8.646 -1.105,-2.598 -2.763,-5.002 -4.973,-7.212 -2.24,-2.211 -4.689,-3.868 -7.347,-4.974 -2.658,-1.075 -5.54,-1.612 -8.646,-1.612 H 2.777 0 v -2.778 -18.135 c 0,-0.402 -0.325,-0.726 -0.726,-0.726 H -8.19 c -0.401,0 -0.725,0.324 -0.725,0.726 z"
             style="fill:none;stroke:#2775c4;stroke-width:10;stroke-linecap:butt;stroke-linejoin:miter;stroke-miterlimit:10;stroke-dasharray:none;stroke-opacity:1"
             id="path1100"
             inkscape:connector-curvature="0" /></g><g
           id="g1102"
           transform="translate(377.2531,279.7773)"><path
             d="m 0,0 c -3.017,-1.313 -5.675,-3.136 -7.975,-5.466 -2.448,-2.448 -4.27,-5.122 -5.464,-8.018 -1.196,-2.927 -1.792,-6.093 -1.792,-9.498 0,-3.464 0.596,-6.63 1.792,-9.497 1.164,-2.898 2.986,-5.571 5.464,-8.02 2.3,-2.389 4.958,-4.196 7.975,-5.421 2.987,-1.225 6.168,-1.837 9.543,-1.837 3.345,0 6.496,0.612 9.452,1.837 2.957,1.225 5.63,3.032 8.02,5.421 2.449,2.449 4.27,5.122 5.465,8.02 1.254,2.896 1.881,6.062 1.881,9.497 0,3.375 -0.627,6.541 -1.881,9.498 -1.224,2.867 -3.032,5.54 -5.42,8.018 C 24.67,-3.105 21.982,-1.284 18.995,0 16.039,1.225 12.888,1.837 9.543,1.837 6.168,1.837 2.987,1.225 0,0 m 22.49,8.378 c 3.912,-1.643 7.571,-4.151 10.976,-7.526 3.345,-3.345 5.839,-6.99 7.481,-10.932 1.673,-4.031 2.509,-8.362 2.509,-12.991 0,-4.659 -0.836,-8.991 -2.509,-12.992 -1.642,-3.973 -4.136,-7.617 -7.481,-10.932 -3.285,-3.285 -6.945,-5.764 -10.976,-7.437 -4.032,-1.642 -8.348,-2.464 -12.947,-2.464 -4.659,0 -8.99,0.822 -12.992,2.464 -4.002,1.643 -7.646,4.122 -10.932,7.437 -3.375,3.346 -5.853,7.004 -7.436,10.976 -1.643,3.883 -2.464,8.199 -2.464,12.948 0,4.718 0.821,9.034 2.464,12.946 1.583,3.913 4.061,7.587 7.436,11.021 3.346,3.345 6.989,5.839 10.932,7.482 3.883,1.643 8.213,2.464 12.992,2.464 4.719,0 9.034,-0.821 12.947,-2.464"
             style="fill:#2775c4;fill-opacity:1;fill-rule:nonzero;stroke:none"
             id="path1104"
             inkscape:connector-curvature="0" /></g><g
           id="g1106"
           transform="translate(377.2531,279.7773)"><path
             d="m 0,0 c -3.017,-1.313 -5.675,-3.136 -7.975,-5.466 -2.448,-2.448 -4.27,-5.122 -5.464,-8.018 -1.196,-2.927 -1.792,-6.093 -1.792,-9.498 0,-3.464 0.596,-6.63 1.792,-9.497 1.164,-2.898 2.986,-5.571 5.464,-8.02 2.3,-2.389 4.958,-4.196 7.975,-5.421 2.987,-1.225 6.168,-1.837 9.543,-1.837 3.345,0 6.496,0.612 9.452,1.837 2.957,1.225 5.63,3.032 8.02,5.421 2.449,2.449 4.27,5.122 5.465,8.02 1.254,2.896 1.881,6.062 1.881,9.497 0,3.375 -0.627,6.541 -1.881,9.498 -1.224,2.867 -3.032,5.54 -5.42,8.018 C 24.67,-3.105 21.982,-1.284 18.995,0 16.039,1.225 12.888,1.837 9.543,1.837 6.168,1.837 2.987,1.225 0,0 Z m 22.49,8.378 c 3.912,-1.643 7.571,-4.151 10.976,-7.526 3.345,-3.345 5.839,-6.99 7.481,-10.932 1.673,-4.031 2.509,-8.362 2.509,-12.991 0,-4.659 -0.836,-8.991 -2.509,-12.992 -1.642,-3.973 -4.136,-7.617 -7.481,-10.932 -3.285,-3.285 -6.945,-5.764 -10.976,-7.437 -4.032,-1.642 -8.348,-2.464 -12.947,-2.464 -4.659,0 -8.99,0.822 -12.992,2.464 -4.002,1.643 -7.646,4.122 -10.932,7.437 -3.375,3.346 -5.853,7.004 -7.436,10.976 -1.643,3.883 -2.464,8.199 -2.464,12.948 0,4.718 0.821,9.034 2.464,12.946 1.583,3.913 4.061,7.587 7.436,11.021 3.346,3.345 6.989,5.839 10.932,7.482 3.883,1.643 8.213,2.464 12.992,2.464 4.719,0 9.034,-0.821 12.947,-2.464 z"
             style="fill:none;stroke:#2775c4;stroke-width:10;stroke-linecap:butt;stroke-linejoin:miter;stroke-miterlimit:10;stroke-dasharray:none;stroke-opacity:1"
             id="path1108"
             inkscape:connector-curvature="0" /></g><g
           id="g1110"
           transform="translate(461.0412,289.3584)"><path
             d="m 0,0 15.013,-40.985 12.126,35.69 c 0.411,1.21 2.123,1.21 2.533,-0.001 l 12.086,-35.689 14.967,40.984 c 0.159,0.435 0.572,0.724 1.035,0.724 h 7.284 c 0.767,0 1.299,-0.762 1.035,-1.482 L 42.351,-65.52 c -0.182,-0.495 -0.886,-0.484 -1.053,0.016 L 28.229,-26.381 15.424,-65.398 C 15.259,-65.9 14.552,-65.913 14.37,-65.416 L -9.31,-0.759 c -0.262,0.72 0.27,1.482 1.036,1.482 h 7.239 C -0.572,0.723 -0.159,0.434 0,0"
             style="fill:#2775c4;fill-opacity:1;fill-rule:nonzero;stroke:none"
             id="path1112"
             inkscape:connector-curvature="0" /></g><g
           id="g1114"
           transform="translate(461.0412,289.3584)"><path
             d="m 0,0 15.013,-40.985 12.126,35.69 c 0.411,1.21 2.123,1.21 2.533,-0.001 l 12.086,-35.689 14.967,40.984 c 0.159,0.435 0.572,0.724 1.035,0.724 h 7.284 c 0.767,0 1.299,-0.762 1.035,-1.482 L 42.351,-65.52 c -0.182,-0.495 -0.886,-0.484 -1.053,0.016 L 28.229,-26.381 15.424,-65.398 C 15.259,-65.9 14.552,-65.913 14.37,-65.416 L -9.31,-0.759 c -0.262,0.72 0.27,1.482 1.036,1.482 h 7.239 C -0.572,0.723 -0.159,0.434 0,0 Z"
             style="fill:none;stroke:#2775c4;stroke-width:10;stroke-linecap:butt;stroke-linejoin:miter;stroke-miterlimit:10;stroke-dasharray:none;stroke-opacity:1"
             id="path1116"
             inkscape:connector-curvature="0" /></g></g></g></g></svg>